<svg xmlns="http://www.w3.org/2000/svg" xmlns:xlink="http://www.w3.org/1999/xlink" width="600" viewBox="0 0 450 135.000003" height="180" preserveAspectRatio="xMidYMid meet"><defs><g></g><clipPath id="125397c3ac"><path d="M 46.355469 105.300781 L 306.359375 105.300781 L 306.359375 111 L 46.355469 111 Z M 46.355469 105.300781 " clip-rule="nonzero"></path></clipPath><clipPath id="d7f3648e33"><path d="M 48.769531 105.300781 L 303.769531 105.300781 C 305.105469 105.300781 306.183594 106.378906 306.183594 107.714844 C 306.183594 109.046875 305.105469 110.128906 303.769531 110.128906 L 48.769531 110.128906 C 47.4375 110.128906 46.355469 109.046875 46.355469 107.714844 C 46.355469 106.378906 47.4375 105.300781 48.769531 105.300781 " clip-rule="nonzero"></path></clipPath><clipPath id="feff3bd04f"><path d="M 324.785156 105.300781 L 400 105.300781 L 400 111 L 324.785156 111 Z M 324.785156 105.300781 " clip-rule="nonzero"></path></clipPath><clipPath id="a8c6a4c7b7"><path d="M 327.199219 105.300781 L 397.074219 105.300781 C 398.410156 105.300781 399.492188 106.378906 399.492188 107.714844 C 399.492188 109.046875 398.410156 110.128906 397.074219 110.128906 L 327.199219 110.128906 C 325.867188 110.128906 324.785156 109.046875 324.785156 107.714844 C 324.785156 106.378906 325.867188 105.300781 327.199219 105.300781 " clip-rule="nonzero"></path></clipPath><clipPath id="79323d356e"><path d="M 401.605469 105.300781 L 406.4375 105.300781 L 406.4375 110.128906 L 401.605469 110.128906 Z M 401.605469 105.300781 " clip-rule="nonzero"></path></clipPath><clipPath id="cf3901a0fa"><path d="M 404.023438 105.300781 C 402.6875 105.300781 401.605469 106.378906 401.605469 107.714844 C 401.605469 109.046875 402.6875 110.128906 404.023438 110.128906 C 405.355469 110.128906 406.4375 109.046875 406.4375 107.714844 C 406.4375 106.378906 405.355469 105.300781 404.023438 105.300781 " clip-rule="nonzero"></path></clipPath></defs><g fill="#eaf2ef" fill-opacity="1"><g transform="translate(25.773494, 91.326239)"><g><path d="M 54.890625 1.191406 C 55.164062 1.191406 55.53125 1.101562 55.808594 1.007812 C 56.726562 0.640625 57.550781 0.0898438 58.46875 -0.824219 C 60.488281 -2.570312 62.414062 -4.679688 64.433594 -7.25 C 68.65625 -12.851562 72.238281 -18.910156 75.632812 -24.875 C 78.019531 -28.914062 80.3125 -33.226562 82.609375 -37.265625 C 83.433594 -38.734375 84.261719 -40.203125 85.085938 -41.671875 C 85.820312 -43.046875 86.464844 -44.332031 87.105469 -45.617188 C 89.492188 -50.484375 92.15625 -55.164062 94.632812 -59.476562 C 96.011719 -61.773438 97.9375 -64.710938 100.964844 -66.730469 C 101.148438 -66.914062 101.332031 -67.097656 101.515625 -67.28125 C 101.976562 -67.832031 101.976562 -68.289062 101.792969 -68.566406 C 101.425781 -69.390625 100.964844 -69.390625 100.78125 -69.390625 C 100.230469 -69.390625 99.773438 -69.300781 99.496094 -69.117188 C 98.210938 -68.472656 97.109375 -67.554688 95.828125 -66.085938 C 94.359375 -64.433594 93.074219 -62.597656 91.878906 -60.578125 C 91.511719 -59.84375 91.054688 -59.109375 90.6875 -58.285156 C 89.035156 -55.53125 87.472656 -52.6875 86.003906 -49.839844 C 84.078125 -46.078125 82.058594 -42.3125 79.945312 -38.550781 C 79.578125 -37.910156 79.121094 -37.082031 78.753906 -36.347656 C 75.265625 -29.832031 71.226562 -22.855469 65.996094 -14.59375 C 64.894531 -12.851562 63.609375 -11.105469 62.414062 -9.546875 C 61.957031 -8.8125 61.40625 -8.167969 60.945312 -7.527344 C 60.671875 -7.160156 60.394531 -6.882812 60.210938 -6.699219 C 60.121094 -6.609375 60.027344 -6.515625 59.9375 -6.425781 C 59.476562 -5.964844 58.835938 -5.691406 58.191406 -5.691406 C 57.550781 -5.691406 57.09375 -5.875 56.726562 -6.332031 C 56.542969 -6.609375 56.175781 -7.066406 56.082031 -7.617188 C 56.082031 -8.078125 55.992188 -8.628906 56.082031 -9.179688 C 56.175781 -9.914062 56.265625 -10.554688 56.265625 -11.289062 C 56.449219 -13.125 56.726562 -15.144531 57 -17.074219 C 57.644531 -21.753906 58.46875 -26.617188 59.203125 -31.300781 C 59.660156 -34.511719 60.210938 -37.816406 60.671875 -41.027344 C 61.40625 -45.894531 62.324219 -51.492188 63.515625 -56.910156 C 63.515625 -57 63.515625 -57.09375 63.515625 -57.183594 C 63.609375 -57.460938 63.609375 -57.734375 63.699219 -58.007812 C 63.699219 -58.375 63.515625 -58.742188 63.332031 -58.835938 C 63.058594 -59.203125 62.691406 -59.386719 62.324219 -59.386719 C 62.324219 -59.386719 62.324219 -59.386719 62.230469 -59.386719 C 61.589844 -59.292969 61.40625 -59.203125 61.222656 -59.019531 C 60.671875 -58.46875 59.9375 -57.828125 59.386719 -57.183594 C 57.734375 -54.980469 56.449219 -53.144531 55.164062 -51.21875 C 51.21875 -45.34375 48.28125 -40.753906 45.710938 -36.347656 C 44.058594 -33.503906 42.222656 -30.75 40.476562 -28.085938 C 39.375 -26.433594 38.277344 -24.78125 37.265625 -23.128906 C 34.144531 -18.175781 30.472656 -13.769531 26.25 -8.996094 C 24.78125 -7.25 23.039062 -5.691406 20.835938 -4.128906 C 19.183594 -2.9375 17.347656 -2.292969 15.511719 -2.292969 C 14.871094 -2.292969 14.136719 -2.386719 13.402344 -2.570312 C 10.738281 -3.304688 8.445312 -4.773438 6.976562 -6.976562 C 4.589844 -10.371094 3.578125 -14.136719 4.039062 -18.082031 C 4.589844 -22.578125 5.414062 -26.527344 6.699219 -30.015625 C 7.617188 -32.402344 8.902344 -35.429688 11.289062 -37.910156 C 11.566406 -38.277344 11.839844 -38.640625 12.117188 -39.007812 C 12.300781 -39.285156 12.207031 -40.203125 11.933594 -40.476562 C 11.65625 -40.753906 11.199219 -41.027344 10.832031 -41.027344 C 10.648438 -41.027344 10.554688 -40.9375 10.371094 -40.84375 C 9.820312 -40.386719 9.085938 -39.835938 8.535156 -39.191406 C 7.25 -37.632812 6.148438 -35.980469 5.414062 -34.238281 C 3.210938 -29.464844 1.742188 -24.140625 1.191406 -18.082031 C 0.917969 -15.511719 1.191406 -12.941406 2.019531 -10.464844 C 3.394531 -6.332031 5.597656 -3.304688 8.996094 -1.285156 C 11.015625 -0.0898438 13.308594 0.550781 15.605469 0.550781 C 18.265625 0.550781 20.742188 -0.367188 22.855469 -2.019531 C 24.507812 -3.304688 26.433594 -4.773438 27.902344 -6.425781 L 28.085938 -6.699219 C 31.207031 -10.28125 34.421875 -13.953125 37.175781 -17.808594 C 41.027344 -23.40625 45.527344 -30.015625 49.472656 -37.175781 C 50.484375 -38.917969 51.585938 -40.570312 52.59375 -42.128906 C 52.960938 -42.589844 53.238281 -43.046875 53.511719 -43.507812 C 53.789062 -43.964844 54.246094 -44.425781 54.613281 -44.699219 C 54.613281 -44.792969 54.707031 -44.882812 54.796875 -44.976562 C 54.980469 -45.160156 55.347656 -45.34375 55.898438 -45.34375 C 56.175781 -45.34375 56.359375 -45.34375 56.542969 -45.25 C 57.09375 -45.066406 57.734375 -44.609375 57.734375 -43.875 C 57.828125 -43.78125 57.828125 -43.691406 57.828125 -43.507812 C 57.917969 -43.046875 57.917969 -42.496094 57.828125 -41.945312 C 57.734375 -41.210938 57.644531 -40.570312 57.460938 -39.925781 C 57.367188 -39.375 57.277344 -38.824219 57.183594 -38.277344 C 56.910156 -36.53125 56.726562 -34.789062 56.449219 -33.136719 C 55.625 -27.902344 54.796875 -22.488281 54.0625 -17.074219 C 53.972656 -16.707031 53.972656 -16.339844 53.878906 -15.878906 C 53.421875 -12.484375 52.960938 -9.269531 53.054688 -6.332031 C 53.054688 -6.242188 53.054688 -6.242188 53.054688 -6.242188 C 53.054688 -5.691406 53.054688 -5.230469 53.054688 -4.773438 C 53.054688 -3.761719 53.054688 -2.9375 53.054688 -2.109375 C 53.054688 -1.46875 53.144531 -0.917969 53.238281 -0.367188 C 53.511719 0.640625 54.0625 1.191406 54.890625 1.191406 Z M 54.890625 1.191406 "></path></g></g></g><g fill="#eaf2ef" fill-opacity="1"><g transform="translate(101.860001, 91.326239)"><g><path d="M 0.367188 0.734375 C 0.824219 0.734375 1.191406 0.640625 1.558594 0.550781 C 1.925781 0.367188 2.292969 0.273438 2.570312 0.183594 C 2.9375 0.0898438 3.304688 -0.0898438 3.671875 -0.183594 C 4.957031 -0.640625 5.875 -1.191406 6.609375 -1.742188 C 7.800781 -2.753906 9.269531 -3.945312 10.554688 -5.230469 C 12.117188 -6.699219 13.769531 -8.445312 15.695312 -10.464844 C 15.972656 -10.832031 16.0625 -11.199219 15.972656 -11.382812 C 15.972656 -11.75 15.789062 -12.117188 15.511719 -12.390625 C 15.238281 -12.574219 14.960938 -12.667969 14.6875 -12.667969 C 14.320312 -12.667969 13.859375 -12.484375 13.585938 -12.117188 C 11.839844 -10.371094 10.097656 -8.535156 8.078125 -6.515625 C 7.617188 -6.148438 7.160156 -5.78125 6.792969 -5.414062 C 6.425781 -5.140625 6.058594 -4.863281 5.78125 -4.589844 C 4.496094 -3.304688 2.9375 -2.660156 1.558594 -2.203125 C 1.191406 -2.109375 0.917969 -2.109375 0.734375 -2.109375 C 0.640625 -2.109375 0.550781 -2.109375 0.457031 -2.019531 C 0.457031 -2.019531 0.367188 -2.019531 0.367188 -2.019531 C -0.0898438 -2.019531 -0.457031 -2.203125 -0.734375 -2.570312 C -1.007812 -2.9375 -1.101562 -3.394531 -1.007812 -3.761719 C -0.917969 -4.039062 -0.824219 -4.3125 -0.824219 -4.589844 C -0.640625 -5.230469 -0.457031 -5.875 -0.183594 -6.515625 C 0.640625 -8.261719 1.46875 -10.097656 2.570312 -11.839844 C 3.578125 -13.675781 4.773438 -15.421875 6.242188 -17.441406 C 7.527344 -19.277344 8.902344 -20.925781 10.28125 -22.578125 L 10.464844 -22.761719 C 10.921875 -23.3125 11.105469 -24.230469 10.371094 -24.78125 C 10.097656 -25.058594 9.820312 -25.148438 9.546875 -25.148438 C 9.085938 -25.148438 8.71875 -24.875 8.351562 -24.507812 C 7.894531 -23.863281 7.34375 -23.222656 6.792969 -22.578125 C 6.515625 -22.210938 6.332031 -21.9375 6.058594 -21.660156 C 5.597656 -21.109375 5.230469 -20.652344 4.863281 -20.191406 C 3.394531 -18.082031 2.292969 -16.429688 1.285156 -14.777344 C 0 -12.851562 -0.917969 -11.105469 -1.742188 -9.546875 C -2.570312 -8.078125 -3.121094 -6.515625 -3.394531 -4.863281 C -3.761719 -3.304688 -3.855469 -2.203125 -3.304688 -1.101562 C -2.753906 -0.0898438 -1.925781 0.367188 -0.550781 0.640625 C -0.273438 0.734375 0.0898438 0.734375 0.367188 0.734375 Z M 16.707031 -33.410156 C 16.980469 -33.410156 17.257812 -33.410156 17.441406 -33.59375 C 17.53125 -33.59375 17.625 -33.6875 17.714844 -33.6875 C 18.082031 -33.871094 18.359375 -34.054688 18.542969 -34.144531 C 19 -34.605469 19.640625 -35.15625 20.101562 -35.796875 C 20.191406 -35.890625 20.285156 -36.164062 20.285156 -36.257812 C 20.285156 -36.347656 20.285156 -36.441406 20.375 -36.53125 C 20.191406 -37.175781 19.917969 -37.359375 19.734375 -37.542969 C 19.277344 -37.726562 18.910156 -37.816406 18.542969 -37.816406 C 18.175781 -37.816406 17.898438 -37.726562 17.53125 -37.632812 C 16.613281 -37.175781 15.878906 -36.625 15.238281 -35.890625 C 14.6875 -35.246094 14.6875 -34.421875 15.144531 -33.960938 C 15.421875 -33.59375 16.0625 -33.410156 16.707031 -33.410156 Z M 16.707031 -33.410156 "></path></g></g></g><g fill="#eaf2ef" fill-opacity="1"><g transform="translate(115.810727, 91.326239)"><g><path d="M 16.339844 1.101562 C 16.339844 1.101562 16.429688 1.101562 16.429688 1.101562 C 18.726562 1.007812 20.925781 0.273438 23.128906 -1.191406 C 24.507812 -2.109375 25.882812 -3.210938 27.261719 -4.589844 C 28.636719 -5.964844 29.921875 -7.527344 30.933594 -8.996094 C 31.484375 -9.636719 31.941406 -10.28125 32.402344 -11.105469 C 32.585938 -11.382812 32.769531 -11.65625 32.953125 -12.023438 C 33.320312 -12.667969 33.226562 -13.402344 32.585938 -13.859375 C 32.402344 -14.042969 32.125 -14.136719 31.851562 -14.136719 C 31.390625 -14.136719 31.023438 -13.859375 30.75 -13.585938 C 30.566406 -13.308594 30.382812 -13.035156 30.199219 -12.757812 C 30.105469 -12.484375 29.921875 -12.300781 29.738281 -12.117188 C 29.554688 -11.75 29.28125 -11.382812 29.003906 -10.921875 C 28.363281 -10.003906 27.71875 -8.996094 26.894531 -8.078125 C 25.332031 -6.332031 23.773438 -4.863281 22.121094 -3.671875 C 20.46875 -2.570312 18.910156 -1.925781 17.257812 -1.652344 C 16.980469 -1.652344 16.796875 -1.558594 16.613281 -1.558594 C 15.605469 -1.558594 15.144531 -2.292969 14.777344 -2.753906 C 13.675781 -4.496094 13.675781 -6.332031 13.769531 -7.894531 C 13.769531 -8.261719 13.769531 -8.535156 13.769531 -8.8125 C 13.769531 -9.453125 14.226562 -10.097656 14.871094 -10.1875 C 15.144531 -10.28125 15.328125 -10.28125 15.605469 -10.371094 C 16.0625 -10.464844 16.523438 -10.554688 16.796875 -10.648438 C 18.265625 -11.289062 19.734375 -12.023438 21.476562 -12.851562 C 22.855469 -13.492188 23.957031 -14.59375 25.058594 -16.339844 C 25.425781 -16.796875 25.699219 -17.257812 25.792969 -17.714844 C 26.160156 -18.632812 26.25 -19.457031 26.160156 -20.191406 C 25.976562 -21.109375 25.699219 -21.84375 25.425781 -22.488281 C 25.058594 -23.039062 24.691406 -23.40625 24.140625 -23.679688 C 23.496094 -23.957031 22.855469 -24.046875 22.121094 -24.046875 C 21.660156 -24.046875 21.109375 -24.046875 20.46875 -23.863281 C 19.640625 -23.773438 18.726562 -23.40625 17.898438 -23.039062 C 17.53125 -22.855469 17.257812 -22.761719 16.980469 -22.671875 C 16.796875 -22.578125 16.613281 -22.488281 16.523438 -22.488281 C 15.789062 -22.210938 15.054688 -21.9375 14.410156 -21.570312 C 12.484375 -20.285156 10.464844 -18.726562 8.261719 -16.707031 C 7.984375 -16.429688 7.617188 -16.339844 7.34375 -16.339844 C 7.160156 -16.339844 6.976562 -16.339844 6.792969 -16.429688 C 6.242188 -16.613281 5.964844 -17.164062 5.964844 -17.714844 C 5.964844 -17.898438 5.875 -18.265625 6.148438 -18.632812 L 6.515625 -19.457031 C 7.25 -20.652344 7.984375 -22.027344 8.71875 -23.3125 C 8.996094 -23.863281 9.546875 -24.324219 10.097656 -24.507812 C 11.289062 -24.875 12.300781 -25.609375 13.402344 -26.34375 C 13.675781 -26.527344 13.953125 -26.710938 14.226562 -26.800781 C 15.695312 -27.8125 17.074219 -28.914062 18.449219 -30.015625 C 18.816406 -30.289062 19.277344 -30.65625 19.640625 -30.933594 C 20.652344 -31.667969 21.660156 -32.402344 22.394531 -33.320312 C 22.671875 -33.6875 22.945312 -33.960938 23.222656 -34.238281 C 24.964844 -36.164062 26.527344 -38 27.8125 -40.203125 C 29.1875 -42.589844 30.566406 -45.160156 30.933594 -48.003906 C 31.023438 -49.199219 31.117188 -50.207031 30.75 -51.21875 C 30.472656 -51.953125 30.015625 -52.320312 29.371094 -52.410156 C 29.1875 -52.410156 29.003906 -52.410156 28.914062 -52.410156 C 28.269531 -52.410156 27.71875 -52.320312 27.167969 -52.042969 C 25.976562 -51.402344 24.78125 -50.667969 23.957031 -49.566406 C 23.222656 -48.648438 22.488281 -47.636719 21.84375 -46.8125 C 20.652344 -45.25 19.550781 -43.691406 18.175781 -41.855469 C 17.898438 -41.394531 17.53125 -40.84375 17.164062 -40.386719 C 16.707031 -39.742188 16.15625 -39.007812 15.605469 -38.277344 C 15.054688 -37.449219 14.410156 -36.625 13.859375 -35.890625 C 13.035156 -34.789062 12.207031 -33.6875 11.382812 -32.585938 C 10.554688 -31.390625 9.636719 -30.105469 8.902344 -28.914062 C 7.617188 -26.800781 6.515625 -24.78125 5.691406 -23.222656 C 4.679688 -21.476562 3.761719 -19.734375 2.84375 -17.992188 C 2.476562 -17.347656 2.109375 -16.613281 1.835938 -15.972656 C 1.742188 -15.789062 1.652344 -15.605469 1.558594 -15.421875 C 1.375 -15.054688 1.101562 -14.59375 0.824219 -14.226562 C -0.0898438 -12.757812 -0.917969 -11.199219 -1.742188 -9.179688 C -2.109375 -8.351562 -2.386719 -7.617188 -2.753906 -6.882812 C -3.488281 -5.324219 -4.40625 -3.394531 -4.863281 -1.375 C -4.957031 -0.640625 -4.496094 0.367188 -3.761719 0.640625 C -3.578125 0.734375 -3.394531 0.824219 -3.210938 0.824219 C -2.9375 0.824219 -2.570312 0.734375 -2.292969 0.457031 C -1.558594 -0.457031 -0.824219 -1.46875 -0.0898438 -2.476562 C 0.183594 -2.9375 0.457031 -3.304688 0.734375 -3.761719 C 1.101562 -4.222656 1.375 -4.773438 1.742188 -5.230469 C 2.109375 -5.78125 2.476562 -6.242188 2.84375 -6.699219 C 3.210938 -7.160156 3.578125 -7.617188 3.855469 -7.984375 C 4.222656 -8.535156 5.140625 -9.730469 6.699219 -9.730469 C 6.976562 -9.730469 7.160156 -9.636719 7.433594 -9.636719 C 7.527344 -9.636719 7.617188 -9.636719 7.800781 -9.636719 C 8.261719 -9.636719 8.71875 -9.636719 9.179688 -9.636719 L 9.730469 -9.546875 C 10.464844 -9.546875 11.015625 -8.996094 11.015625 -8.261719 C 11.015625 -8.167969 11.105469 -8.167969 11.105469 -8.078125 C 11.105469 -7.984375 11.105469 -7.894531 11.105469 -7.800781 C 11.105469 -7.527344 11.105469 -7.25 11.105469 -7.066406 C 11.105469 -5.78125 11.105469 -4.589844 11.566406 -3.578125 C 12.207031 -1.835938 12.757812 -0.457031 14.042969 0.367188 C 14.777344 0.824219 15.511719 1.101562 16.339844 1.101562 Z M 21.9375 -21.476562 C 22.488281 -21.476562 22.945312 -21.203125 23.128906 -20.742188 C 23.863281 -19.457031 23.222656 -18.449219 23.039062 -18.175781 C 22.210938 -16.523438 20.835938 -15.328125 19.09375 -14.59375 C 18.816406 -14.503906 18.632812 -14.410156 18.449219 -14.320312 C 17.808594 -13.953125 17.074219 -13.675781 16.429688 -13.402344 C 15.972656 -13.21875 15.511719 -13.125 15.054688 -13.035156 C 14.503906 -12.851562 13.769531 -12.667969 12.941406 -12.574219 C 12.574219 -12.484375 12.300781 -12.484375 11.933594 -12.390625 C 11.839844 -12.390625 11.65625 -12.390625 11.566406 -12.390625 C 11.472656 -12.390625 11.472656 -12.390625 11.382812 -12.390625 C 10.832031 -12.390625 10.1875 -12.757812 10.097656 -13.402344 L 10.003906 -13.675781 C 9.914062 -14.136719 10.003906 -14.59375 10.371094 -14.960938 C 13.769531 -18.359375 17.441406 -20.46875 21.660156 -21.386719 C 21.753906 -21.386719 21.84375 -21.476562 21.9375 -21.476562 Z M 25.792969 -46.8125 C 26.066406 -46.8125 26.34375 -46.71875 26.617188 -46.535156 L 26.800781 -46.445312 C 27.261719 -46.078125 27.445312 -45.34375 27.261719 -44.792969 C 25.242188 -40.386719 22.210938 -36.898438 19.734375 -34.421875 C 19.457031 -34.144531 19.09375 -33.960938 18.726562 -33.960938 C 18.449219 -33.960938 18.082031 -34.054688 17.808594 -34.328125 L 17.714844 -34.421875 C 17.164062 -34.878906 17.074219 -35.707031 17.441406 -36.257812 L 24.691406 -46.261719 C 24.964844 -46.628906 25.425781 -46.8125 25.792969 -46.8125 Z M 25.792969 -46.8125 "></path></g></g></g><g fill="#eaf2ef" fill-opacity="1"><g transform="translate(146.924512, 91.326239)"><g><path d="M 20.742188 0.550781 C 21.386719 0.550781 22.027344 0.457031 22.761719 0.183594 C 24.691406 -0.550781 26.34375 -1.742188 27.71875 -2.753906 C 29.738281 -4.3125 31.300781 -5.875 32.492188 -7.433594 C 32.859375 -7.894531 33.226562 -8.351562 33.503906 -8.8125 C 34.054688 -9.546875 34.511719 -10.1875 35.0625 -10.921875 C 35.339844 -11.382812 35.339844 -11.839844 35.0625 -12.300781 C 34.789062 -12.757812 34.421875 -12.941406 33.960938 -12.941406 C 33.871094 -12.941406 33.777344 -12.941406 33.6875 -12.941406 C 33.410156 -12.941406 33.136719 -12.757812 32.675781 -12.207031 C 32.492188 -12.023438 32.402344 -11.75 32.21875 -11.566406 C 31.390625 -10.464844 30.65625 -9.269531 29.738281 -8.261719 C 27.996094 -6.242188 25.792969 -4.496094 23.039062 -2.84375 C 22.761719 -2.753906 22.488281 -2.660156 22.304688 -2.570312 C 22.210938 -2.476562 22.121094 -2.476562 22.027344 -2.386719 C 21.84375 -2.292969 21.660156 -2.292969 21.476562 -2.292969 C 21.203125 -2.292969 20.835938 -2.386719 20.652344 -2.570312 L 20.46875 -2.753906 C 20.007812 -3.027344 19.824219 -3.578125 19.917969 -4.039062 C 19.917969 -4.222656 20.007812 -4.3125 20.007812 -4.496094 C 20.101562 -4.863281 20.101562 -5.230469 20.285156 -5.691406 C 20.46875 -6.242188 20.742188 -6.699219 21.019531 -7.25 C 21.109375 -7.527344 21.292969 -7.894531 21.386719 -8.167969 C 21.660156 -8.71875 21.84375 -9.269531 22.121094 -9.820312 C 22.304688 -10.371094 22.578125 -10.921875 22.761719 -11.472656 C 22.945312 -11.839844 23.128906 -12.207031 23.3125 -12.574219 C 23.589844 -13.125 23.863281 -13.769531 24.046875 -14.320312 C 24.507812 -15.511719 24.78125 -16.796875 24.875 -18.175781 C 24.964844 -19.09375 24.140625 -20.46875 23.3125 -20.742188 C 22.855469 -20.835938 22.394531 -20.925781 22.027344 -20.925781 C 21.660156 -20.925781 21.386719 -20.835938 21.019531 -20.742188 C 19.824219 -20.46875 18.632812 -19.734375 17.53125 -18.910156 C 15.789062 -17.808594 14.136719 -16.339844 12.207031 -14.320312 C 11.933594 -14.136719 11.75 -13.859375 11.472656 -13.675781 C 11.105469 -13.21875 10.648438 -12.757812 10.1875 -12.300781 C 8.902344 -11.015625 7.617188 -9.820312 6.425781 -8.71875 C 5.691406 -8.078125 4.863281 -7.34375 4.039062 -6.609375 C 3.671875 -6.242188 3.304688 -5.875 2.9375 -5.507812 C 2.660156 -5.324219 2.292969 -5.140625 1.925781 -5.140625 C 1.742188 -5.140625 1.46875 -5.230469 1.191406 -5.414062 C 0.734375 -5.691406 0.457031 -6.332031 0.640625 -6.976562 C 0.734375 -7.25 0.824219 -7.433594 0.917969 -7.710938 C 1.007812 -8.167969 1.191406 -8.535156 1.285156 -8.996094 C 1.925781 -10.921875 2.660156 -12.851562 3.855469 -14.777344 C 3.945312 -14.960938 4.039062 -15.144531 4.128906 -15.328125 C 4.3125 -15.605469 4.496094 -15.789062 4.589844 -16.0625 C 5.140625 -17.164062 5.597656 -18.082031 6.058594 -19 C 6.242188 -19.457031 6.882812 -20.835938 8.445312 -20.835938 C 8.628906 -20.835938 8.71875 -20.835938 8.902344 -20.742188 C 9.179688 -20.925781 9.453125 -21.019531 9.636719 -21.109375 C 10.464844 -21.386719 11.199219 -21.753906 11.839844 -22.121094 C 12.667969 -22.578125 13.402344 -23.128906 14.226562 -23.679688 C 14.410156 -23.863281 14.59375 -24.046875 14.777344 -24.140625 C 15.144531 -24.324219 15.421875 -24.597656 15.695312 -24.875 C 15.972656 -25.058594 16.246094 -25.332031 16.429688 -25.515625 C 16.890625 -25.792969 17.257812 -26.066406 17.625 -26.34375 C 18.359375 -26.894531 19 -27.445312 19.640625 -27.996094 C 21.203125 -29.28125 22.394531 -30.382812 23.589844 -31.574219 C 24.691406 -32.859375 25.699219 -34.054688 26.527344 -35.339844 C 27.078125 -36.257812 27.71875 -37.175781 28.269531 -38.183594 C 28.820312 -39.101562 29.28125 -40.019531 29.921875 -40.9375 C 30.75 -42.222656 31.207031 -43.691406 31.667969 -45.160156 C 32.308594 -47.085938 32.585938 -48.738281 32.492188 -50.390625 C 32.492188 -51.402344 32.035156 -52.136719 31.023438 -52.871094 C 30.75 -52.960938 30.472656 -52.960938 30.289062 -52.960938 C 29.554688 -52.960938 29.003906 -52.777344 28.636719 -52.503906 C 27.71875 -51.769531 26.710938 -50.851562 25.609375 -49.75 C 24.875 -49.015625 24.324219 -48.28125 23.679688 -47.453125 C 23.40625 -47.179688 23.222656 -46.902344 22.945312 -46.535156 C 21.9375 -45.34375 21.019531 -44.242188 20.007812 -43.046875 C 19.09375 -41.855469 18.082031 -40.570312 17.074219 -39.375 C 16.890625 -39.191406 16.707031 -39.007812 16.613281 -38.824219 C 16.429688 -38.640625 16.246094 -38.460938 16.0625 -38.277344 C 15.695312 -37.726562 15.238281 -37.175781 14.871094 -36.625 C 14.410156 -36.164062 14.042969 -35.613281 13.675781 -35.15625 C 13.492188 -34.972656 13.308594 -34.789062 13.125 -34.605469 C 12.941406 -34.421875 12.851562 -34.238281 12.667969 -34.054688 C 12.390625 -33.59375 12.117188 -33.226562 11.839844 -32.769531 C 11.382812 -32.035156 10.832031 -31.300781 10.28125 -30.566406 C 8.71875 -28.636719 7.617188 -26.984375 6.699219 -25.332031 C 6.332031 -24.875 6.058594 -24.324219 5.691406 -23.773438 C 4.957031 -22.488281 4.222656 -21.109375 3.488281 -19.824219 C 3.304688 -19.457031 3.121094 -19 2.84375 -18.542969 C 2.570312 -17.992188 2.292969 -17.257812 1.925781 -16.707031 C 1.285156 -15.695312 0.640625 -14.6875 0.273438 -13.585938 C -0.0898438 -12.667969 -0.550781 -11.65625 -0.917969 -10.648438 C -1.375 -9.453125 -1.925781 -8.167969 -2.386719 -6.882812 C -2.9375 -5.414062 -3.304688 -3.855469 -3.488281 -2.109375 C -3.488281 -1.191406 -3.210938 -0.457031 -2.476562 0.183594 C -2.386719 0.273438 -2.109375 0.457031 -1.925781 0.457031 C -1.375 0.367188 -0.640625 0.273438 0.183594 0.0898438 C 0.273438 0 0.550781 -0.183594 0.734375 -0.273438 C 0.824219 -0.367188 0.917969 -0.457031 1.007812 -0.550781 C 1.375 -0.824219 1.835938 -1.101562 2.203125 -1.375 C 3.027344 -1.925781 3.761719 -2.386719 4.3125 -3.027344 C 4.957031 -3.761719 5.597656 -4.3125 6.242188 -4.957031 C 6.425781 -5.140625 6.609375 -5.230469 6.699219 -5.414062 C 6.976562 -5.597656 7.160156 -5.78125 7.34375 -5.964844 C 7.527344 -6.148438 7.710938 -6.242188 7.800781 -6.425781 C 8.167969 -6.699219 8.535156 -7.066406 8.8125 -7.433594 C 9.363281 -7.894531 9.820312 -8.445312 10.371094 -8.902344 C 10.554688 -9.085938 10.738281 -9.269531 10.921875 -9.453125 C 11.839844 -10.28125 12.851562 -11.199219 13.769531 -12.207031 C 14.777344 -13.21875 15.972656 -14.226562 17.074219 -15.144531 C 17.441406 -15.511719 17.808594 -15.878906 18.175781 -16.15625 C 18.449219 -16.429688 18.726562 -16.613281 19 -16.796875 C 19.09375 -16.796875 19.183594 -16.890625 19.277344 -16.980469 C 19.550781 -17.074219 19.824219 -17.164062 20.101562 -17.164062 C 20.46875 -17.164062 20.835938 -16.980469 21.109375 -16.707031 L 21.203125 -16.613281 C 21.570312 -16.15625 21.660156 -15.605469 21.476562 -15.054688 C 21.386719 -14.960938 21.292969 -14.777344 21.292969 -14.59375 C 21.109375 -14.320312 21.019531 -13.953125 20.835938 -13.675781 C 20.652344 -13.21875 20.375 -12.667969 20.191406 -12.117188 C 19.734375 -11.015625 19.277344 -9.914062 18.726562 -8.71875 C 17.992188 -7.25 17.347656 -5.597656 16.707031 -3.394531 C 16.523438 -2.9375 16.613281 -2.570312 16.796875 -2.109375 C 16.796875 -2.109375 16.890625 -2.109375 16.890625 -2.019531 C 16.980469 -1.925781 17.164062 -1.652344 17.257812 -1.375 C 17.441406 -0.550781 18.082031 -0.0898438 19.457031 0.367188 C 19.917969 0.550781 20.285156 0.550781 20.742188 0.550781 Z M 27.167969 -46.628906 C 27.445312 -46.628906 27.628906 -46.628906 27.8125 -46.535156 L 28.085938 -46.351562 C 28.636719 -46.078125 28.914062 -45.433594 28.730469 -44.792969 C 28.730469 -44.699219 28.636719 -44.609375 28.636719 -44.515625 C 28.546875 -44.242188 28.453125 -43.875 28.269531 -43.414062 C 27.902344 -42.863281 27.535156 -42.222656 27.261719 -41.671875 C 26.25 -40.019531 25.242188 -38.277344 24.140625 -36.625 C 21.753906 -33.136719 18.542969 -30.382812 15.511719 -27.996094 C 15.238281 -27.8125 14.960938 -27.71875 14.777344 -27.628906 C 14.6875 -27.628906 14.59375 -27.628906 14.503906 -27.535156 C 14.320312 -27.535156 14.226562 -27.445312 14.042969 -27.445312 C 13.585938 -27.445312 13.21875 -27.628906 12.941406 -27.996094 C 12.574219 -28.453125 12.574219 -29.097656 12.941406 -29.648438 C 13.035156 -29.738281 13.125 -29.921875 13.125 -30.015625 C 13.308594 -30.289062 13.492188 -30.472656 13.585938 -30.65625 C 14.6875 -32.035156 15.511719 -33.136719 16.429688 -34.328125 C 17.074219 -35.246094 17.808594 -36.074219 18.449219 -36.992188 C 18.632812 -37.175781 18.816406 -37.359375 19 -37.632812 C 19.183594 -37.726562 19.367188 -37.910156 19.457031 -38.09375 C 20.191406 -39.007812 21.019531 -40.019531 21.753906 -40.9375 C 22.671875 -42.039062 23.589844 -43.140625 24.507812 -44.332031 C 24.875 -44.792969 25.242188 -45.160156 25.699219 -45.617188 C 25.792969 -45.800781 25.976562 -45.984375 26.160156 -46.167969 C 26.433594 -46.535156 26.800781 -46.628906 27.167969 -46.628906 Z M 27.167969 -46.628906 "></path></g></g></g><g fill="#eaf2ef" fill-opacity="1"><g transform="translate(180.4246, 91.326239)"><g><path d="M 0.367188 0.734375 C 0.824219 0.734375 1.191406 0.640625 1.558594 0.550781 C 1.925781 0.367188 2.292969 0.273438 2.570312 0.183594 C 2.9375 0.0898438 3.304688 -0.0898438 3.671875 -0.183594 C 4.957031 -0.640625 5.875 -1.191406 6.609375 -1.742188 C 7.800781 -2.753906 9.269531 -3.945312 10.554688 -5.230469 C 12.117188 -6.699219 13.769531 -8.445312 15.695312 -10.464844 C 15.972656 -10.832031 16.0625 -11.199219 15.972656 -11.382812 C 15.972656 -11.75 15.789062 -12.117188 15.511719 -12.390625 C 15.238281 -12.574219 14.960938 -12.667969 14.6875 -12.667969 C 14.320312 -12.667969 13.859375 -12.484375 13.585938 -12.117188 C 11.839844 -10.371094 10.097656 -8.535156 8.078125 -6.515625 C 7.617188 -6.148438 7.160156 -5.78125 6.792969 -5.414062 C 6.425781 -5.140625 6.058594 -4.863281 5.78125 -4.589844 C 4.496094 -3.304688 2.9375 -2.660156 1.558594 -2.203125 C 1.191406 -2.109375 0.917969 -2.109375 0.734375 -2.109375 C 0.640625 -2.109375 0.550781 -2.109375 0.457031 -2.019531 C 0.457031 -2.019531 0.367188 -2.019531 0.367188 -2.019531 C -0.0898438 -2.019531 -0.457031 -2.203125 -0.734375 -2.570312 C -1.007812 -2.9375 -1.101562 -3.394531 -1.007812 -3.761719 C -0.917969 -4.039062 -0.824219 -4.3125 -0.824219 -4.589844 C -0.640625 -5.230469 -0.457031 -5.875 -0.183594 -6.515625 C 0.640625 -8.261719 1.46875 -10.097656 2.570312 -11.839844 C 3.578125 -13.675781 4.773438 -15.421875 6.242188 -17.441406 C 7.527344 -19.277344 8.902344 -20.925781 10.28125 -22.578125 L 10.464844 -22.761719 C 10.921875 -23.3125 11.105469 -24.230469 10.371094 -24.78125 C 10.097656 -25.058594 9.820312 -25.148438 9.546875 -25.148438 C 9.085938 -25.148438 8.71875 -24.875 8.351562 -24.507812 C 7.894531 -23.863281 7.34375 -23.222656 6.792969 -22.578125 C 6.515625 -22.210938 6.332031 -21.9375 6.058594 -21.660156 C 5.597656 -21.109375 5.230469 -20.652344 4.863281 -20.191406 C 3.394531 -18.082031 2.292969 -16.429688 1.285156 -14.777344 C 0 -12.851562 -0.917969 -11.105469 -1.742188 -9.546875 C -2.570312 -8.078125 -3.121094 -6.515625 -3.394531 -4.863281 C -3.761719 -3.304688 -3.855469 -2.203125 -3.304688 -1.101562 C -2.753906 -0.0898438 -1.925781 0.367188 -0.550781 0.640625 C -0.273438 0.734375 0.0898438 0.734375 0.367188 0.734375 Z M 16.707031 -33.410156 C 16.980469 -33.410156 17.257812 -33.410156 17.441406 -33.59375 C 17.53125 -33.59375 17.625 -33.6875 17.714844 -33.6875 C 18.082031 -33.871094 18.359375 -34.054688 18.542969 -34.144531 C 19 -34.605469 19.640625 -35.15625 20.101562 -35.796875 C 20.191406 -35.890625 20.285156 -36.164062 20.285156 -36.257812 C 20.285156 -36.347656 20.285156 -36.441406 20.375 -36.53125 C 20.191406 -37.175781 19.917969 -37.359375 19.734375 -37.542969 C 19.277344 -37.726562 18.910156 -37.816406 18.542969 -37.816406 C 18.175781 -37.816406 17.898438 -37.726562 17.53125 -37.632812 C 16.613281 -37.175781 15.878906 -36.625 15.238281 -35.890625 C 14.6875 -35.246094 14.6875 -34.421875 15.144531 -33.960938 C 15.421875 -33.59375 16.0625 -33.410156 16.707031 -33.410156 Z M 16.707031 -33.410156 "></path></g></g></g><g fill="#eaf2ef" fill-opacity="1"><g transform="translate(194.375326, 91.326239)"><g><path d="M 1.925781 0.183594 C 2.570312 0.183594 3.304688 0 3.945312 -0.273438 C 5.691406 -0.917969 7.066406 -1.652344 8.445312 -2.660156 C 10.648438 -4.222656 12.667969 -6.058594 14.59375 -7.984375 L 15.144531 -8.445312 C 16.15625 -9.363281 17.164062 -10.464844 18.082031 -11.566406 C 18.542969 -12.023438 19 -12.484375 19.457031 -13.035156 C 20.007812 -13.585938 20.007812 -14.320312 19.550781 -14.871094 C 19.277344 -15.144531 19 -15.328125 18.542969 -15.328125 C 18.265625 -15.328125 17.992188 -15.238281 17.714844 -14.960938 C 17.625 -14.960938 17.53125 -14.871094 17.441406 -14.777344 C 17.164062 -14.59375 16.980469 -14.503906 16.890625 -14.320312 C 16.707031 -14.226562 16.523438 -14.042969 16.429688 -13.953125 C 15.972656 -13.585938 15.605469 -13.21875 15.421875 -12.941406 C 14.777344 -11.839844 13.953125 -11.015625 13.125 -10.28125 C 13.035156 -10.097656 12.941406 -10.003906 12.757812 -9.914062 C 12.023438 -9.085938 11.105469 -8.261719 9.914062 -7.25 C 8.71875 -6.242188 7.433594 -5.140625 5.964844 -4.222656 C 5.230469 -3.671875 3.945312 -2.9375 2.292969 -2.570312 C 2.203125 -2.570312 2.109375 -2.570312 2.019531 -2.570312 C 1.652344 -2.570312 1.375 -2.660156 1.101562 -2.9375 C 0.734375 -3.210938 0.640625 -3.578125 0.640625 -4.039062 C 0.640625 -4.128906 0.640625 -4.3125 0.640625 -4.40625 C 0.640625 -4.679688 0.640625 -4.863281 0.734375 -5.140625 C 0.734375 -5.414062 0.824219 -5.691406 0.824219 -5.875 C 0.917969 -6.148438 1.007812 -6.515625 1.007812 -6.699219 C 1.191406 -8.445312 1.835938 -10.003906 2.386719 -11.472656 C 2.476562 -11.75 2.660156 -12.023438 2.753906 -12.300781 C 3.210938 -13.402344 4.039062 -13.953125 4.679688 -14.226562 L 4.863281 -14.320312 C 5.875 -14.871094 6.792969 -15.328125 7.617188 -15.878906 C 9.085938 -16.890625 10.464844 -17.898438 11.75 -19 C 13.125 -20.101562 14.410156 -21.386719 15.695312 -22.578125 C 16.339844 -23.222656 16.980469 -23.863281 17.625 -24.507812 C 17.898438 -24.875 18.265625 -25.242188 18.542969 -25.515625 C 18.726562 -25.792969 19 -25.976562 19.183594 -26.160156 C 19.457031 -26.433594 19.734375 -26.710938 20.007812 -27.078125 L 20.46875 -27.535156 C 22.027344 -29.464844 23.589844 -31.300781 25.058594 -33.226562 C 25.148438 -33.410156 25.332031 -33.59375 25.515625 -33.777344 C 26.800781 -35.523438 28.085938 -37.175781 29.003906 -39.007812 C 30.839844 -42.496094 31.851562 -45.25 32.402344 -47.914062 C 32.585938 -48.738281 32.585938 -49.472656 32.402344 -50.484375 C 32.21875 -51.21875 31.757812 -51.859375 31.117188 -52.410156 C 31.023438 -52.503906 30.566406 -52.6875 29.738281 -52.6875 C 29.097656 -52.6875 28.546875 -52.503906 28.453125 -52.410156 C 26.710938 -51.035156 25.332031 -49.65625 24.140625 -48.28125 C 23.589844 -47.730469 23.128906 -47.179688 22.671875 -46.628906 L 22.394531 -46.167969 C 22.121094 -45.894531 21.84375 -45.617188 21.660156 -45.25 C 20.925781 -44.515625 20.375 -43.78125 19.734375 -42.957031 C 19.277344 -42.3125 18.726562 -41.488281 18.265625 -40.84375 C 17.898438 -40.203125 17.53125 -39.652344 17.074219 -39.101562 C 16.613281 -38.367188 16.0625 -37.726562 15.605469 -36.992188 C 15.238281 -36.53125 14.871094 -36.074219 14.503906 -35.523438 C 13.308594 -33.960938 12.117188 -32.308594 10.921875 -30.65625 C 10.28125 -29.832031 9.730469 -29.003906 9.085938 -28.179688 C 8.902344 -27.8125 8.628906 -27.535156 8.351562 -27.167969 C 7.894531 -26.527344 7.34375 -25.792969 6.882812 -25.148438 C 6.515625 -24.597656 6.148438 -23.957031 5.78125 -23.3125 C 5.507812 -22.945312 5.230469 -22.488281 4.957031 -22.121094 C 4.773438 -21.9375 4.679688 -21.660156 4.496094 -21.570312 C 4.40625 -21.386719 4.222656 -21.203125 4.128906 -21.019531 C 2.84375 -18.449219 1.558594 -15.878906 0.550781 -13.953125 C -0.367188 -12.117188 -1.007812 -10.371094 -1.375 -8.628906 C -1.742188 -6.976562 -2.019531 -5.230469 -2.019531 -3.488281 C -2.019531 -1.652344 -1.191406 -0.550781 0.550781 0 C 1.007812 0.0898438 1.46875 0.183594 1.925781 0.183594 Z M 27.445312 -47.363281 C 27.628906 -47.363281 27.71875 -47.363281 27.902344 -47.269531 C 28.363281 -47.179688 28.730469 -46.71875 28.820312 -46.261719 C 29.003906 -45.066406 28.636719 -44.332031 28.363281 -43.78125 C 28.363281 -43.691406 28.269531 -43.597656 28.269531 -43.507812 C 27.078125 -40.84375 25.976562 -38.824219 24.597656 -36.992188 L 24.046875 -36.347656 C 22.027344 -33.6875 20.007812 -31.023438 17.714844 -28.546875 C 16.613281 -27.261719 15.421875 -25.976562 14.226562 -24.875 C 13.769531 -24.414062 13.308594 -23.957031 12.851562 -23.496094 C 12.484375 -23.039062 11.933594 -22.855469 11.289062 -22.855469 C 10.738281 -22.855469 10.28125 -23.128906 10.003906 -23.589844 C 9.820312 -24.046875 9.820312 -24.597656 10.1875 -24.964844 C 10.371094 -25.332031 10.554688 -25.609375 10.738281 -25.882812 C 11.289062 -26.527344 11.75 -27.167969 12.207031 -27.902344 C 12.574219 -28.269531 12.941406 -28.730469 13.21875 -29.1875 C 13.675781 -29.738281 14.136719 -30.382812 14.503906 -30.933594 C 15.878906 -32.859375 17.164062 -34.511719 18.265625 -36.074219 C 18.910156 -36.992188 19.457031 -37.910156 20.101562 -38.824219 C 20.558594 -39.46875 21.019531 -40.109375 21.476562 -40.84375 L 21.570312 -40.84375 C 22.488281 -42.222656 23.40625 -43.507812 24.691406 -44.699219 C 24.875 -44.976562 25.058594 -45.25 25.242188 -45.527344 C 25.425781 -45.710938 25.515625 -45.894531 25.699219 -46.078125 C 25.882812 -46.351562 26.066406 -46.445312 26.25 -46.628906 C 26.25 -46.71875 26.34375 -46.8125 26.433594 -46.902344 C 26.710938 -47.179688 27.078125 -47.363281 27.445312 -47.363281 Z M 27.445312 -47.363281 "></path></g></g></g><g fill="#eaf2ef" fill-opacity="1"><g transform="translate(211.263041, 91.326239)"><g></g></g></g><g fill="#eaf2ef" fill-opacity="1"><g transform="translate(225.030203, 91.326239)"><g><path d="M 54.890625 1.191406 C 55.164062 1.191406 55.53125 1.101562 55.808594 1.007812 C 56.726562 0.640625 57.550781 0.0898438 58.46875 -0.824219 C 60.488281 -2.570312 62.414062 -4.679688 64.433594 -7.25 C 68.65625 -12.851562 72.238281 -18.910156 75.632812 -24.875 C 78.019531 -28.914062 80.3125 -33.226562 82.609375 -37.265625 C 83.433594 -38.734375 84.261719 -40.203125 85.085938 -41.671875 C 85.820312 -43.046875 86.464844 -44.332031 87.105469 -45.617188 C 89.492188 -50.484375 92.15625 -55.164062 94.632812 -59.476562 C 96.011719 -61.773438 97.9375 -64.710938 100.964844 -66.730469 C 101.148438 -66.914062 101.332031 -67.097656 101.515625 -67.28125 C 101.976562 -67.832031 101.976562 -68.289062 101.792969 -68.566406 C 101.425781 -69.390625 100.964844 -69.390625 100.78125 -69.390625 C 100.230469 -69.390625 99.773438 -69.300781 99.496094 -69.117188 C 98.210938 -68.472656 97.109375 -67.554688 95.828125 -66.085938 C 94.359375 -64.433594 93.074219 -62.597656 91.878906 -60.578125 C 91.511719 -59.84375 91.054688 -59.109375 90.6875 -58.285156 C 89.035156 -55.53125 87.472656 -52.6875 86.003906 -49.839844 C 84.078125 -46.078125 82.058594 -42.3125 79.945312 -38.550781 C 79.578125 -37.910156 79.121094 -37.082031 78.753906 -36.347656 C 75.265625 -29.832031 71.226562 -22.855469 65.996094 -14.59375 C 64.894531 -12.851562 63.609375 -11.105469 62.414062 -9.546875 C 61.957031 -8.8125 61.40625 -8.167969 60.945312 -7.527344 C 60.671875 -7.160156 60.394531 -6.882812 60.210938 -6.699219 C 60.121094 -6.609375 60.027344 -6.515625 59.9375 -6.425781 C 59.476562 -5.964844 58.835938 -5.691406 58.191406 -5.691406 C 57.550781 -5.691406 57.09375 -5.875 56.726562 -6.332031 C 56.542969 -6.609375 56.175781 -7.066406 56.082031 -7.617188 C 56.082031 -8.078125 55.992188 -8.628906 56.082031 -9.179688 C 56.175781 -9.914062 56.265625 -10.554688 56.265625 -11.289062 C 56.449219 -13.125 56.726562 -15.144531 57 -17.074219 C 57.644531 -21.753906 58.46875 -26.617188 59.203125 -31.300781 C 59.660156 -34.511719 60.210938 -37.816406 60.671875 -41.027344 C 61.40625 -45.894531 62.324219 -51.492188 63.515625 -56.910156 C 63.515625 -57 63.515625 -57.09375 63.515625 -57.183594 C 63.609375 -57.460938 63.609375 -57.734375 63.699219 -58.007812 C 63.699219 -58.375 63.515625 -58.742188 63.332031 -58.835938 C 63.058594 -59.203125 62.691406 -59.386719 62.324219 -59.386719 C 62.324219 -59.386719 62.324219 -59.386719 62.230469 -59.386719 C 61.589844 -59.292969 61.40625 -59.203125 61.222656 -59.019531 C 60.671875 -58.46875 59.9375 -57.828125 59.386719 -57.183594 C 57.734375 -54.980469 56.449219 -53.144531 55.164062 -51.21875 C 51.21875 -45.34375 48.28125 -40.753906 45.710938 -36.347656 C 44.058594 -33.503906 42.222656 -30.75 40.476562 -28.085938 C 39.375 -26.433594 38.277344 -24.78125 37.265625 -23.128906 C 34.144531 -18.175781 30.472656 -13.769531 26.25 -8.996094 C 24.78125 -7.25 23.039062 -5.691406 20.835938 -4.128906 C 19.183594 -2.9375 17.347656 -2.292969 15.511719 -2.292969 C 14.871094 -2.292969 14.136719 -2.386719 13.402344 -2.570312 C 10.738281 -3.304688 8.445312 -4.773438 6.976562 -6.976562 C 4.589844 -10.371094 3.578125 -14.136719 4.039062 -18.082031 C 4.589844 -22.578125 5.414062 -26.527344 6.699219 -30.015625 C 7.617188 -32.402344 8.902344 -35.429688 11.289062 -37.910156 C 11.566406 -38.277344 11.839844 -38.640625 12.117188 -39.007812 C 12.300781 -39.285156 12.207031 -40.203125 11.933594 -40.476562 C 11.65625 -40.753906 11.199219 -41.027344 10.832031 -41.027344 C 10.648438 -41.027344 10.554688 -40.9375 10.371094 -40.84375 C 9.820312 -40.386719 9.085938 -39.835938 8.535156 -39.191406 C 7.25 -37.632812 6.148438 -35.980469 5.414062 -34.238281 C 3.210938 -29.464844 1.742188 -24.140625 1.191406 -18.082031 C 0.917969 -15.511719 1.191406 -12.941406 2.019531 -10.464844 C 3.394531 -6.332031 5.597656 -3.304688 8.996094 -1.285156 C 11.015625 -0.0898438 13.308594 0.550781 15.605469 0.550781 C 18.265625 0.550781 20.742188 -0.367188 22.855469 -2.019531 C 24.507812 -3.304688 26.433594 -4.773438 27.902344 -6.425781 L 28.085938 -6.699219 C 31.207031 -10.28125 34.421875 -13.953125 37.175781 -17.808594 C 41.027344 -23.40625 45.527344 -30.015625 49.472656 -37.175781 C 50.484375 -38.917969 51.585938 -40.570312 52.59375 -42.128906 C 52.960938 -42.589844 53.238281 -43.046875 53.511719 -43.507812 C 53.789062 -43.964844 54.246094 -44.425781 54.613281 -44.699219 C 54.613281 -44.792969 54.707031 -44.882812 54.796875 -44.976562 C 54.980469 -45.160156 55.347656 -45.34375 55.898438 -45.34375 C 56.175781 -45.34375 56.359375 -45.34375 56.542969 -45.25 C 57.09375 -45.066406 57.734375 -44.609375 57.734375 -43.875 C 57.828125 -43.78125 57.828125 -43.691406 57.828125 -43.507812 C 57.917969 -43.046875 57.917969 -42.496094 57.828125 -41.945312 C 57.734375 -41.210938 57.644531 -40.570312 57.460938 -39.925781 C 57.367188 -39.375 57.277344 -38.824219 57.183594 -38.277344 C 56.910156 -36.53125 56.726562 -34.789062 56.449219 -33.136719 C 55.625 -27.902344 54.796875 -22.488281 54.0625 -17.074219 C 53.972656 -16.707031 53.972656 -16.339844 53.878906 -15.878906 C 53.421875 -12.484375 52.960938 -9.269531 53.054688 -6.332031 C 53.054688 -6.242188 53.054688 -6.242188 53.054688 -6.242188 C 53.054688 -5.691406 53.054688 -5.230469 53.054688 -4.773438 C 53.054688 -3.761719 53.054688 -2.9375 53.054688 -2.109375 C 53.054688 -1.46875 53.144531 -0.917969 53.238281 -0.367188 C 53.511719 0.640625 54.0625 1.191406 54.890625 1.191406 Z M 54.890625 1.191406 "></path></g></g></g><g fill="#eaf2ef" fill-opacity="1"><g transform="translate(301.116721, 91.326239)"><g><path d="M 4.773438 1.007812 C 6.425781 1.007812 7.617188 0.824219 8.71875 0.457031 C 9.085938 0.367188 9.453125 0.273438 9.730469 0.0898438 C 10.554688 -0.0898438 11.289062 -0.367188 12.023438 -0.640625 C 13.585938 -1.375 15.144531 -2.109375 16.613281 -2.84375 L 16.980469 -3.027344 C 17.625 -3.394531 18.449219 -3.855469 19.277344 -4.40625 C 20.101562 -4.863281 20.925781 -5.507812 21.9375 -6.332031 C 22.761719 -6.976562 23.863281 -7.894531 24.875 -8.8125 C 25.609375 -9.453125 26.25 -10.1875 26.984375 -10.832031 C 27.261719 -11.199219 27.628906 -11.566406 27.996094 -11.839844 C 28.085938 -12.023438 28.269531 -12.117188 28.363281 -12.207031 C 28.453125 -12.300781 28.636719 -12.390625 28.636719 -12.484375 C 29.097656 -12.941406 29.097656 -13.769531 28.636719 -14.226562 C 28.363281 -14.503906 27.996094 -14.6875 27.628906 -14.6875 C 27.445312 -14.6875 27.167969 -14.6875 26.894531 -14.503906 C 26.25 -13.953125 25.609375 -13.402344 24.964844 -12.757812 C 24.875 -12.667969 24.78125 -12.574219 24.691406 -12.390625 C 24.324219 -12.117188 24.046875 -11.839844 23.773438 -11.472656 C 23.039062 -10.738281 22.304688 -9.914062 21.386719 -9.269531 C 20.558594 -8.8125 19.824219 -8.167969 19.09375 -7.617188 C 17.992188 -6.699219 16.980469 -5.964844 15.789062 -5.414062 C 15.605469 -5.324219 15.511719 -5.324219 15.328125 -5.230469 C 15.238281 -5.230469 15.054688 -5.140625 14.960938 -5.046875 C 12.757812 -3.855469 10.832031 -3.027344 8.996094 -2.386719 C 7.433594 -1.925781 6.058594 -1.652344 4.679688 -1.652344 C 3.761719 -1.652344 2.9375 -1.742188 2.109375 -1.925781 C 1.101562 -2.203125 0.457031 -2.84375 0.183594 -3.761719 C -0.183594 -4.773438 0 -5.691406 0.183594 -6.425781 C 0.183594 -6.699219 0.273438 -6.976562 0.273438 -7.25 C 0.367188 -7.894531 0.824219 -8.445312 1.375 -8.535156 C 1.742188 -8.535156 2.019531 -8.628906 2.292969 -8.71875 C 2.84375 -8.8125 3.394531 -8.902344 3.945312 -8.996094 L 4.222656 -9.085938 C 5.691406 -9.453125 7.25 -9.820312 8.71875 -10.371094 C 9.730469 -10.738281 10.832031 -11.199219 12.117188 -11.839844 C 13.035156 -12.390625 14.042969 -12.941406 15.054688 -13.585938 L 15.328125 -13.859375 C 16.523438 -14.6875 17.714844 -15.511719 18.726562 -16.429688 C 19.734375 -17.441406 20.558594 -18.359375 21.292969 -19.277344 C 22.304688 -20.742188 23.039062 -22.210938 23.40625 -23.863281 C 23.40625 -24.046875 23.40625 -24.324219 23.3125 -24.597656 C 23.3125 -24.691406 23.3125 -24.875 23.222656 -24.964844 C 23.222656 -25.148438 23.128906 -25.332031 23.128906 -25.609375 C 23.039062 -25.882812 22.945312 -26.160156 22.394531 -26.617188 C 21.660156 -27.261719 20.835938 -27.628906 19.917969 -27.628906 C 19.734375 -27.628906 19.640625 -27.628906 19.457031 -27.71875 C 19.09375 -27.71875 18.816406 -27.71875 18.542969 -27.71875 C 17.992188 -27.71875 17.625 -27.628906 17.257812 -27.535156 C 16.613281 -27.167969 15.878906 -26.894531 15.238281 -26.617188 C 14.320312 -26.25 13.492188 -25.882812 12.574219 -25.425781 C 11.015625 -24.597656 9.636719 -23.679688 8.628906 -22.761719 C 8.167969 -22.304688 7.710938 -21.9375 7.25 -21.570312 C 6.792969 -21.203125 6.425781 -20.925781 6.058594 -20.558594 C 5.964844 -20.46875 5.875 -20.375 5.691406 -20.285156 C 4.957031 -19.550781 4.222656 -18.910156 3.578125 -18.265625 C 2.386719 -16.980469 1.285156 -15.605469 0.273438 -14.042969 C -0.367188 -13.035156 -1.101562 -11.933594 -1.46875 -10.832031 C -2.386719 -8.351562 -2.84375 -6.148438 -2.660156 -4.039062 C -2.476562 -2.753906 -1.925781 -1.558594 -1.007812 -0.550781 C -0.734375 -0.367188 -0.183594 0.273438 0.367188 0.457031 C 1.285156 0.734375 2.292969 0.917969 3.304688 0.917969 C 3.855469 1.007812 4.3125 1.007812 4.773438 1.007812 Z M 19.183594 -25.058594 C 19.550781 -25.058594 20.007812 -24.875 20.191406 -24.597656 C 20.558594 -24.230469 20.652344 -23.679688 20.46875 -23.222656 C 19.917969 -21.9375 19.277344 -20.835938 18.175781 -19.734375 C 16.246094 -17.53125 13.675781 -15.695312 10.1875 -13.859375 C 9.453125 -13.492188 8.71875 -13.21875 7.984375 -12.941406 C 7.710938 -12.851562 7.433594 -12.757812 7.25 -12.667969 C 6.792969 -12.574219 6.332031 -12.390625 5.875 -12.300781 C 5.78125 -12.207031 5.597656 -12.117188 5.414062 -12.117188 C 5.230469 -12.023438 5.140625 -12.023438 4.957031 -12.023438 C 4.496094 -12.023438 4.128906 -12.207031 3.855469 -12.574219 C 3.488281 -13.035156 3.488281 -13.675781 3.761719 -14.136719 C 4.773438 -15.789062 6.058594 -17.164062 7.617188 -18.359375 C 8.261719 -18.910156 8.996094 -19.457031 9.820312 -20.285156 C 11.472656 -21.84375 13.492188 -23.039062 16.0625 -24.140625 C 16.246094 -24.230469 16.429688 -24.324219 16.613281 -24.414062 C 16.980469 -24.507812 17.347656 -24.691406 17.714844 -24.875 C 17.992188 -24.964844 18.359375 -24.964844 18.632812 -25.058594 C 18.726562 -25.058594 18.816406 -25.058594 18.910156 -25.058594 C 19 -25.058594 19.09375 -25.058594 19.183594 -25.058594 Z M 19.183594 -25.058594 "></path></g></g></g><g fill="#eaf2ef" fill-opacity="1"><g transform="translate(326.907202, 91.326239)"><g><path d="M -15.054688 18.910156 C -14.59375 18.910156 -14.136719 18.632812 -13.953125 18.175781 C -13.21875 16.980469 -12.574219 15.695312 -11.933594 14.410156 L -11.382812 13.585938 C -11.289062 13.308594 -11.199219 13.125 -11.105469 12.941406 C -10.921875 12.484375 -10.648438 12.023438 -10.371094 11.566406 C -10.097656 11.105469 -9.730469 10.554688 -9.453125 10.097656 C -9.085938 9.546875 -8.71875 8.996094 -8.351562 8.445312 C -8.261719 8.261719 -8.078125 8.078125 -7.984375 7.800781 C -7.34375 6.792969 -6.699219 5.78125 -6.242188 4.679688 C -5.78125 3.671875 -5.140625 2.570312 -4.496094 1.46875 C -4.3125 1.285156 -4.128906 1.007812 -3.945312 0.640625 C -3.855469 0.457031 -3.671875 0.183594 -3.578125 0 C -3.304688 -0.367188 -3.121094 -0.734375 -2.84375 -1.101562 C -2.109375 -2.386719 -1.375 -3.671875 -0.550781 -4.863281 C -0.183594 -5.414062 0.183594 -5.78125 0.457031 -6.242188 C 0.734375 -6.515625 0.917969 -6.699219 1.101562 -6.976562 C 1.375 -7.34375 1.652344 -7.800781 2.019531 -8.167969 C 2.570312 -8.996094 3.121094 -9.820312 3.761719 -10.554688 C 5.140625 -12.207031 6.609375 -13.769531 7.984375 -15.238281 C 8.167969 -15.421875 8.351562 -15.605469 8.535156 -15.789062 C 9.453125 -16.796875 10.464844 -17.898438 11.75 -18.632812 C 12.207031 -18.910156 12.667969 -19.277344 13.125 -19.550781 C 13.308594 -19.734375 13.585938 -19.824219 13.769531 -20.007812 C 15.605469 -21.292969 17.441406 -22.121094 19.457031 -22.578125 C 19.734375 -22.578125 19.917969 -22.671875 20.191406 -22.671875 C 21.019531 -22.671875 22.027344 -22.121094 22.304688 -20.742188 C 22.394531 -20.101562 22.394531 -19.550781 22.394531 -18.910156 C 22.304688 -17.53125 22.027344 -16.246094 21.570312 -15.054688 C 21.386719 -14.777344 21.292969 -14.410156 21.109375 -13.953125 C 20.835938 -13.21875 20.558594 -12.390625 20.101562 -11.65625 C 19.367188 -10.371094 18.449219 -8.996094 17.441406 -7.710938 C 16.796875 -6.976562 16.0625 -6.332031 14.960938 -5.597656 C 13.769531 -4.863281 12.574219 -4.3125 11.382812 -3.945312 C 11.015625 -3.945312 10.738281 -3.855469 10.371094 -3.761719 C 8.628906 -3.304688 6.699219 -2.753906 4.679688 -2.753906 C 4.589844 -2.753906 4.496094 -2.753906 4.3125 -2.753906 C 3.671875 -2.753906 3.121094 -2.203125 3.121094 -1.558594 C 3.027344 -0.824219 3.578125 -0.183594 4.222656 -0.0898438 C 4.496094 -0.0898438 4.773438 -0.0898438 4.957031 -0.0898438 C 5.414062 -0.0898438 5.875 -0.0898438 6.332031 -0.183594 C 7.34375 -0.367188 8.628906 -0.457031 9.820312 -0.824219 L 10.1875 -0.917969 C 11.933594 -1.285156 13.492188 -1.742188 14.960938 -2.570312 C 15.511719 -2.84375 16.0625 -3.121094 16.796875 -3.488281 C 19 -4.496094 21.203125 -5.691406 23.496094 -7.160156 C 25.515625 -8.445312 27.996094 -10.28125 29.554688 -13.035156 C 30.015625 -13.859375 29.921875 -14.320312 29.648438 -14.6875 C 29.371094 -15.144531 29.097656 -15.328125 28.546875 -15.328125 C 28.453125 -15.328125 28.363281 -15.328125 28.269531 -15.328125 C 27.902344 -15.238281 27.535156 -15.054688 26.984375 -14.410156 C 26.710938 -14.042969 26.34375 -13.859375 25.976562 -13.859375 C 25.792969 -13.859375 25.515625 -13.953125 25.332031 -14.042969 C 24.78125 -14.226562 24.507812 -14.871094 24.597656 -15.511719 C 24.597656 -15.789062 24.691406 -16.0625 24.691406 -16.339844 C 24.875 -16.890625 24.964844 -17.441406 24.964844 -17.992188 C 25.058594 -19.640625 25.148438 -21.109375 24.507812 -22.488281 C 23.957031 -23.773438 23.039062 -24.691406 21.753906 -25.058594 C 21.292969 -25.242188 20.742188 -25.332031 20.285156 -25.332031 C 20.101562 -25.332031 19.917969 -25.332031 19.734375 -25.332031 C 18.542969 -25.148438 17.257812 -24.875 16.0625 -24.324219 C 15.695312 -24.046875 15.238281 -23.863281 14.871094 -23.679688 C 14.226562 -23.40625 13.585938 -23.128906 13.035156 -22.761719 C 12.390625 -22.394531 11.839844 -22.027344 11.199219 -21.570312 C 10.832031 -21.292969 10.554688 -21.109375 10.1875 -20.835938 C 10.003906 -20.742188 9.820312 -20.652344 9.636719 -20.558594 C 9.546875 -20.46875 9.453125 -20.375 9.363281 -20.375 C 9.085938 -20.191406 8.902344 -20.191406 8.628906 -20.191406 C 8.351562 -20.191406 7.984375 -20.285156 7.800781 -20.46875 C 7.34375 -20.925781 7.160156 -21.476562 7.34375 -22.027344 C 7.433594 -22.210938 7.527344 -22.304688 7.527344 -22.488281 C 7.617188 -22.671875 7.710938 -22.945312 7.800781 -23.128906 C 7.894531 -23.40625 7.984375 -23.679688 8.167969 -23.957031 C 8.351562 -24.414062 8.535156 -24.78125 8.71875 -25.242188 C 8.902344 -25.609375 8.902344 -26.066406 8.71875 -26.433594 C 8.628906 -26.617188 8.351562 -26.894531 7.984375 -27.078125 C 7.800781 -27.167969 7.617188 -27.167969 7.433594 -27.167969 C 6.882812 -27.167969 6.425781 -26.800781 6.148438 -26.160156 C 6.058594 -25.699219 5.875 -25.242188 5.691406 -24.875 C 5.597656 -24.597656 5.507812 -24.324219 5.324219 -24.046875 C 4.957031 -23.039062 4.496094 -21.9375 3.945312 -20.835938 C 3.394531 -19.640625 2.753906 -18.359375 2.203125 -17.074219 L 2.019531 -16.707031 C 1.742188 -16.0625 1.375 -15.511719 1.101562 -14.871094 C 0.824219 -14.320312 0.550781 -13.769531 0.273438 -13.308594 C 0.0898438 -12.851562 -0.0898438 -12.390625 -0.367188 -11.933594 C -0.640625 -11.289062 -1.007812 -10.648438 -1.285156 -9.914062 C -1.652344 -9.179688 -2.109375 -8.535156 -2.476562 -7.800781 C -2.660156 -7.433594 -2.84375 -7.066406 -3.027344 -6.699219 C -3.394531 -6.058594 -3.761719 -5.324219 -4.128906 -4.679688 C -4.957031 -3.210938 -5.78125 -1.742188 -6.515625 -0.273438 C -6.792969 0.183594 -7.066406 0.550781 -7.25 0.917969 C -7.617188 1.375 -7.894531 1.835938 -8.078125 2.292969 C -8.628906 3.761719 -9.453125 5.046875 -10.1875 6.242188 C -10.554688 6.792969 -10.832031 7.34375 -11.199219 7.984375 C -11.472656 8.535156 -11.839844 9.085938 -12.207031 9.546875 C -12.667969 10.1875 -13.035156 10.738281 -13.308594 11.382812 C -13.492188 11.933594 -13.859375 12.390625 -14.136719 12.851562 C -14.226562 13.035156 -14.410156 13.21875 -14.503906 13.308594 C -14.59375 13.585938 -14.777344 13.859375 -14.871094 14.136719 C -15.054688 14.410156 -15.238281 14.777344 -15.328125 15.054688 C -15.421875 15.238281 -15.511719 15.421875 -15.695312 15.695312 C -15.789062 15.878906 -15.878906 16.0625 -15.972656 16.246094 C -16.0625 16.523438 -16.246094 16.796875 -16.339844 17.074219 C -16.613281 17.714844 -16.339844 18.449219 -15.695312 18.816406 C -15.511719 18.910156 -15.328125 18.910156 -15.054688 18.910156 Z M -15.054688 18.910156 "></path></g></g></g><g fill="#eaf2ef" fill-opacity="1"><g transform="translate(356.093579, 91.326239)"><g><path d="M 0.0898438 0.457031 C 0.457031 0.457031 0.640625 0.457031 0.824219 0.457031 C 1.925781 0.0898438 3.027344 -0.367188 4.039062 -1.007812 C 4.863281 -1.558594 5.78125 -2.203125 6.609375 -2.84375 C 7.066406 -3.121094 7.527344 -3.488281 7.894531 -3.761719 C 8.078125 -3.945312 8.351562 -4.039062 8.535156 -4.128906 C 8.535156 -4.222656 8.628906 -4.222656 8.71875 -4.222656 C 8.902344 -4.40625 9.179688 -4.496094 9.453125 -4.496094 C 9.636719 -4.496094 9.820312 -4.40625 10.003906 -4.3125 C 10.371094 -4.128906 10.738281 -3.761719 10.738281 -3.304688 C 11.015625 -2.109375 11.566406 -1.191406 12.851562 -0.273438 C 13.585938 0.183594 14.410156 0.457031 15.328125 0.457031 C 15.878906 0.457031 16.523438 0.367188 17.164062 0.183594 C 17.992188 -0.0898438 18.910156 -0.457031 19.917969 -1.101562 C 21.292969 -2.019531 22.761719 -3.121094 24.046875 -4.128906 L 24.230469 -4.222656 C 25.699219 -5.414062 27.261719 -6.792969 29.003906 -8.71875 C 29.648438 -9.363281 30.199219 -10.003906 30.65625 -10.554688 C 31.023438 -10.921875 31.300781 -11.289062 31.667969 -11.566406 C 32.492188 -12.574219 33.410156 -13.585938 34.238281 -14.59375 C 34.511719 -14.871094 34.605469 -15.238281 34.605469 -15.511719 C 34.511719 -15.878906 34.328125 -16.246094 34.054688 -16.429688 C 33.871094 -16.707031 33.503906 -16.796875 33.226562 -16.796875 C 32.859375 -16.796875 32.402344 -16.613281 32.125 -16.246094 C 30.65625 -14.503906 29.097656 -12.757812 27.445312 -10.921875 C 26.894531 -10.28125 26.25 -9.730469 25.699219 -9.179688 C 25.058594 -8.628906 24.414062 -7.984375 23.679688 -7.34375 C 23.3125 -6.976562 22.855469 -6.609375 22.394531 -6.242188 C 20.652344 -4.679688 18.910156 -3.488281 16.980469 -2.570312 C 16.523438 -2.386719 16.15625 -2.292969 15.695312 -2.292969 C 15.605469 -2.203125 15.511719 -2.203125 15.421875 -2.203125 C 14.59375 -2.203125 14.042969 -2.570312 13.859375 -2.9375 C 13.585938 -3.210938 13.308594 -3.761719 13.402344 -4.679688 C 13.585938 -5.507812 13.953125 -6.332031 14.320312 -6.976562 C 14.871094 -7.894531 15.511719 -8.8125 16.339844 -9.914062 C 16.796875 -10.464844 17.347656 -11.105469 17.808594 -11.65625 C 18.265625 -12.207031 18.816406 -12.757812 19.277344 -13.308594 C 19.640625 -13.769531 19.917969 -14.226562 20.007812 -14.6875 C 20.191406 -15.144531 20.007812 -15.789062 19.550781 -16.0625 C 19.367188 -16.246094 19 -16.339844 18.726562 -16.339844 C 18.542969 -16.339844 18.265625 -16.339844 18.082031 -16.15625 C 17.53125 -15.789062 17.074219 -15.511719 16.707031 -15.144531 C 15.421875 -14.042969 14.042969 -12.757812 12.757812 -11.65625 L 11.839844 -10.832031 C 11.289062 -10.28125 10.738281 -9.820312 10.1875 -9.269531 C 8.902344 -8.167969 7.617188 -6.976562 6.242188 -5.875 C 4.957031 -4.773438 3.578125 -3.855469 2.292969 -3.027344 C 1.558594 -2.660156 0.734375 -2.203125 -0.367188 -2.203125 C -0.367188 -2.203125 -0.457031 -2.203125 -0.457031 -2.203125 C -0.824219 -2.203125 -1.285156 -2.386719 -1.46875 -2.753906 C -1.742188 -3.027344 -1.835938 -3.488281 -1.742188 -3.855469 C -1.742188 -4.039062 -1.652344 -4.3125 -1.652344 -4.496094 C -1.558594 -4.957031 -1.46875 -5.414062 -1.375 -5.875 C -1.101562 -6.609375 -0.824219 -7.34375 -0.550781 -7.894531 C 0.550781 -10.28125 2.109375 -12.207031 3.855469 -14.320312 C 4.3125 -14.871094 4.773438 -15.328125 5.324219 -15.695312 C 5.597656 -15.972656 5.875 -16.15625 6.058594 -16.429688 C 8.167969 -18.542969 10.097656 -20.007812 12.117188 -21.203125 C 13.859375 -22.210938 15.511719 -22.945312 17.164062 -23.3125 C 18.082031 -23.589844 19 -23.863281 20.007812 -23.863281 C 20.285156 -23.863281 20.558594 -23.773438 20.925781 -23.773438 C 21.203125 -23.679688 21.9375 -23.589844 22.394531 -22.855469 C 22.671875 -22.394531 22.761719 -21.84375 22.578125 -21.203125 C 22.488281 -20.835938 22.304688 -20.558594 22.121094 -20.285156 C 22.121094 -20.191406 22.027344 -20.101562 22.027344 -20.007812 C 21.753906 -19.367188 21.84375 -18.726562 22.394531 -18.359375 C 22.671875 -18.175781 22.945312 -17.992188 23.222656 -17.992188 C 23.40625 -17.992188 23.773438 -18.082031 24.046875 -18.359375 C 24.597656 -18.910156 25.058594 -19.734375 25.242188 -20.558594 C 25.332031 -21.386719 25.332031 -22.210938 25.242188 -23.128906 C 25.058594 -24.046875 24.507812 -24.875 23.679688 -25.515625 C 22.671875 -26.160156 21.570312 -26.527344 20.191406 -26.527344 C 19.824219 -26.527344 19.277344 -26.527344 18.816406 -26.433594 C 15.878906 -25.976562 13.125 -24.964844 10.738281 -23.496094 C 9.085938 -22.488281 7.433594 -21.292969 5.597656 -19.640625 C 4.773438 -18.910156 3.945312 -18.175781 3.121094 -17.441406 C 2.753906 -17.074219 2.292969 -16.613281 1.925781 -16.246094 C 1.007812 -15.054688 0.183594 -14.042969 -0.550781 -13.125 L -0.640625 -12.851562 C -1.285156 -12.117188 -1.835938 -11.289062 -2.203125 -10.554688 C -3.578125 -8.078125 -4.222656 -6.058594 -4.40625 -4.039062 C -4.496094 -3.121094 -4.40625 -2.386719 -4.128906 -1.742188 C -3.945312 -1.285156 -3.488281 -0.824219 -3.027344 -0.273438 C -2.9375 -0.183594 -2.84375 -0.0898438 -2.753906 0 C -2.660156 0.0898438 -2.570312 0.0898438 -2.476562 0.0898438 L -2.292969 0.183594 C -2.019531 0.273438 -1.652344 0.367188 -1.46875 0.367188 C -1.191406 0.367188 -1.007812 0.457031 -0.824219 0.457031 C -0.457031 0.457031 -0.183594 0.457031 0.0898438 0.457031 Z M 0.0898438 0.457031 "></path></g></g></g><g fill="#eaf2ef" fill-opacity="1"><g transform="translate(385.738851, 91.326239)"><g><path d="M 1.925781 0.183594 C 2.570312 0.183594 3.304688 0 3.945312 -0.273438 C 5.691406 -0.917969 7.066406 -1.652344 8.445312 -2.660156 C 10.648438 -4.222656 12.667969 -6.058594 14.59375 -7.984375 L 15.144531 -8.445312 C 16.15625 -9.363281 17.164062 -10.464844 18.082031 -11.566406 C 18.542969 -12.023438 19 -12.484375 19.457031 -13.035156 C 20.007812 -13.585938 20.007812 -14.320312 19.550781 -14.871094 C 19.277344 -15.144531 19 -15.328125 18.542969 -15.328125 C 18.265625 -15.328125 17.992188 -15.238281 17.714844 -14.960938 C 17.625 -14.960938 17.53125 -14.871094 17.441406 -14.777344 C 17.164062 -14.59375 16.980469 -14.503906 16.890625 -14.320312 C 16.707031 -14.226562 16.523438 -14.042969 16.429688 -13.953125 C 15.972656 -13.585938 15.605469 -13.21875 15.421875 -12.941406 C 14.777344 -11.839844 13.953125 -11.015625 13.125 -10.28125 C 13.035156 -10.097656 12.941406 -10.003906 12.757812 -9.914062 C 12.023438 -9.085938 11.105469 -8.261719 9.914062 -7.25 C 8.71875 -6.242188 7.433594 -5.140625 5.964844 -4.222656 C 5.230469 -3.671875 3.945312 -2.9375 2.292969 -2.570312 C 2.203125 -2.570312 2.109375 -2.570312 2.019531 -2.570312 C 1.652344 -2.570312 1.375 -2.660156 1.101562 -2.9375 C 0.734375 -3.210938 0.640625 -3.578125 0.640625 -4.039062 C 0.640625 -4.128906 0.640625 -4.3125 0.640625 -4.40625 C 0.640625 -4.679688 0.640625 -4.863281 0.734375 -5.140625 C 0.734375 -5.414062 0.824219 -5.691406 0.824219 -5.875 C 0.917969 -6.148438 1.007812 -6.515625 1.007812 -6.699219 C 1.191406 -8.445312 1.835938 -10.003906 2.386719 -11.472656 C 2.476562 -11.75 2.660156 -12.023438 2.753906 -12.300781 C 3.210938 -13.402344 4.039062 -13.953125 4.679688 -14.226562 L 4.863281 -14.320312 C 5.875 -14.871094 6.792969 -15.328125 7.617188 -15.878906 C 9.085938 -16.890625 10.464844 -17.898438 11.75 -19 C 13.125 -20.101562 14.410156 -21.386719 15.695312 -22.578125 C 16.339844 -23.222656 16.980469 -23.863281 17.625 -24.507812 C 17.898438 -24.875 18.265625 -25.242188 18.542969 -25.515625 C 18.726562 -25.792969 19 -25.976562 19.183594 -26.160156 C 19.457031 -26.433594 19.734375 -26.710938 20.007812 -27.078125 L 20.46875 -27.535156 C 22.027344 -29.464844 23.589844 -31.300781 25.058594 -33.226562 C 25.148438 -33.410156 25.332031 -33.59375 25.515625 -33.777344 C 26.800781 -35.523438 28.085938 -37.175781 29.003906 -39.007812 C 30.839844 -42.496094 31.851562 -45.25 32.402344 -47.914062 C 32.585938 -48.738281 32.585938 -49.472656 32.402344 -50.484375 C 32.21875 -51.21875 31.757812 -51.859375 31.117188 -52.410156 C 31.023438 -52.503906 30.566406 -52.6875 29.738281 -52.6875 C 29.097656 -52.6875 28.546875 -52.503906 28.453125 -52.410156 C 26.710938 -51.035156 25.332031 -49.65625 24.140625 -48.28125 C 23.589844 -47.730469 23.128906 -47.179688 22.671875 -46.628906 L 22.394531 -46.167969 C 22.121094 -45.894531 21.84375 -45.617188 21.660156 -45.25 C 20.925781 -44.515625 20.375 -43.78125 19.734375 -42.957031 C 19.277344 -42.3125 18.726562 -41.488281 18.265625 -40.84375 C 17.898438 -40.203125 17.53125 -39.652344 17.074219 -39.101562 C 16.613281 -38.367188 16.0625 -37.726562 15.605469 -36.992188 C 15.238281 -36.53125 14.871094 -36.074219 14.503906 -35.523438 C 13.308594 -33.960938 12.117188 -32.308594 10.921875 -30.65625 C 10.28125 -29.832031 9.730469 -29.003906 9.085938 -28.179688 C 8.902344 -27.8125 8.628906 -27.535156 8.351562 -27.167969 C 7.894531 -26.527344 7.34375 -25.792969 6.882812 -25.148438 C 6.515625 -24.597656 6.148438 -23.957031 5.78125 -23.3125 C 5.507812 -22.945312 5.230469 -22.488281 4.957031 -22.121094 C 4.773438 -21.9375 4.679688 -21.660156 4.496094 -21.570312 C 4.40625 -21.386719 4.222656 -21.203125 4.128906 -21.019531 C 2.84375 -18.449219 1.558594 -15.878906 0.550781 -13.953125 C -0.367188 -12.117188 -1.007812 -10.371094 -1.375 -8.628906 C -1.742188 -6.976562 -2.019531 -5.230469 -2.019531 -3.488281 C -2.019531 -1.652344 -1.191406 -0.550781 0.550781 0 C 1.007812 0.0898438 1.46875 0.183594 1.925781 0.183594 Z M 27.445312 -47.363281 C 27.628906 -47.363281 27.71875 -47.363281 27.902344 -47.269531 C 28.363281 -47.179688 28.730469 -46.71875 28.820312 -46.261719 C 29.003906 -45.066406 28.636719 -44.332031 28.363281 -43.78125 C 28.363281 -43.691406 28.269531 -43.597656 28.269531 -43.507812 C 27.078125 -40.84375 25.976562 -38.824219 24.597656 -36.992188 L 24.046875 -36.347656 C 22.027344 -33.6875 20.007812 -31.023438 17.714844 -28.546875 C 16.613281 -27.261719 15.421875 -25.976562 14.226562 -24.875 C 13.769531 -24.414062 13.308594 -23.957031 12.851562 -23.496094 C 12.484375 -23.039062 11.933594 -22.855469 11.289062 -22.855469 C 10.738281 -22.855469 10.28125 -23.128906 10.003906 -23.589844 C 9.820312 -24.046875 9.820312 -24.597656 10.1875 -24.964844 C 10.371094 -25.332031 10.554688 -25.609375 10.738281 -25.882812 C 11.289062 -26.527344 11.75 -27.167969 12.207031 -27.902344 C 12.574219 -28.269531 12.941406 -28.730469 13.21875 -29.1875 C 13.675781 -29.738281 14.136719 -30.382812 14.503906 -30.933594 C 15.878906 -32.859375 17.164062 -34.511719 18.265625 -36.074219 C 18.910156 -36.992188 19.457031 -37.910156 20.101562 -38.824219 C 20.558594 -39.46875 21.019531 -40.109375 21.476562 -40.84375 L 21.570312 -40.84375 C 22.488281 -42.222656 23.40625 -43.507812 24.691406 -44.699219 C 24.875 -44.976562 25.058594 -45.25 25.242188 -45.527344 C 25.425781 -45.710938 25.515625 -45.894531 25.699219 -46.078125 C 25.882812 -46.351562 26.066406 -46.445312 26.25 -46.628906 C 26.25 -46.71875 26.34375 -46.8125 26.433594 -46.902344 C 26.710938 -47.179688 27.078125 -47.363281 27.445312 -47.363281 Z M 27.445312 -47.363281 "></path></g></g></g><g clip-path="url(#125397c3ac)"><g clip-path="url(#d7f3648e33)"><path fill="#00a9a5" d="M 46.355469 105.300781 L 306.359375 105.300781 L 306.359375 110.027344 L 46.355469 110.027344 Z M 46.355469 105.300781 " fill-opacity="1" fill-rule="nonzero"></path></g></g><g clip-path="url(#feff3bd04f)"><g clip-path="url(#a8c6a4c7b7)"><path fill="#00a9a5" d="M 324.785156 105.300781 L 399.242188 105.300781 L 399.242188 110.027344 L 324.785156 110.027344 Z M 324.785156 105.300781 " fill-opacity="1" fill-rule="nonzero"></path></g></g><g clip-path="url(#79323d356e)"><g clip-path="url(#cf3901a0fa)"><path fill="#ee1122" d="M 401.605469 105.300781 L 406.4375 105.300781 L 406.4375 110.128906 L 401.605469 110.128906 Z M 401.605469 105.300781 " fill-opacity="1" fill-rule="nonzero"></path></g></g></svg>