<svg xmlns="http://www.w3.org/2000/svg" xmlns:xlink="http://www.w3.org/1999/xlink" width="600" viewBox="0 0 450 135.000003" height="180" preserveAspectRatio="xMidYMid meet"><defs><g></g><clipPath id="746cf66f6a"><path d="M 46.355469 105.300781 L 306.359375 105.300781 L 306.359375 111 L 46.355469 111 Z M 46.355469 105.300781 " clip-rule="nonzero"></path></clipPath><clipPath id="d37e93cee8"><path d="M 48.769531 105.300781 L 303.769531 105.300781 C 305.105469 105.300781 306.183594 106.378906 306.183594 107.714844 C 306.183594 109.046875 305.105469 110.128906 303.769531 110.128906 L 48.769531 110.128906 C 47.4375 110.128906 46.355469 109.046875 46.355469 107.714844 C 46.355469 106.378906 47.4375 105.300781 48.769531 105.300781 " clip-rule="nonzero"></path></clipPath><clipPath id="7c227ef4e1"><path d="M 324.785156 105.300781 L 400 105.300781 L 400 111 L 324.785156 111 Z M 324.785156 105.300781 " clip-rule="nonzero"></path></clipPath><clipPath id="3e4fa9987e"><path d="M 327.199219 105.300781 L 397.074219 105.300781 C 398.410156 105.300781 399.492188 106.378906 399.492188 107.714844 C 399.492188 109.046875 398.410156 110.128906 397.074219 110.128906 L 327.199219 110.128906 C 325.867188 110.128906 324.785156 109.046875 324.785156 107.714844 C 324.785156 106.378906 325.867188 105.300781 327.199219 105.300781 " clip-rule="nonzero"></path></clipPath><clipPath id="b1ae3d7eca"><path d="M 401.605469 105.300781 L 406.4375 105.300781 L 406.4375 110.128906 L 401.605469 110.128906 Z M 401.605469 105.300781 " clip-rule="nonzero"></path></clipPath><clipPath id="f43304cdd1"><path d="M 404.023438 105.300781 C 402.6875 105.300781 401.605469 106.378906 401.605469 107.714844 C 401.605469 109.046875 402.6875 110.128906 404.023438 110.128906 C 405.355469 110.128906 406.4375 109.046875 406.4375 107.714844 C 406.4375 106.378906 405.355469 105.300781 404.023438 105.300781 " clip-rule="nonzero"></path></clipPath></defs><g fill="#0d090a" fill-opacity="1"><g transform="translate(25.754124, 92.231879)"><g><path d="M 54.890625 1.191406 C 55.167969 1.191406 55.535156 1.101562 55.808594 1.007812 C 56.726562 0.640625 57.554688 0.0898438 58.472656 -0.824219 C 60.492188 -2.570312 62.417969 -4.679688 64.4375 -7.25 C 68.660156 -12.851562 72.242188 -18.910156 75.636719 -24.875 C 78.023438 -28.914062 80.316406 -33.230469 82.613281 -37.269531 C 83.4375 -38.738281 84.265625 -40.203125 85.089844 -41.671875 C 85.824219 -43.050781 86.46875 -44.335938 87.109375 -45.621094 C 89.496094 -50.484375 92.160156 -55.167969 94.636719 -59.480469 C 96.015625 -61.777344 97.941406 -64.714844 100.972656 -66.734375 C 101.15625 -66.917969 101.339844 -67.101562 101.523438 -67.285156 C 101.980469 -67.835938 101.980469 -68.292969 101.796875 -68.570312 C 101.429688 -69.394531 100.972656 -69.394531 100.789062 -69.394531 C 100.238281 -69.394531 99.777344 -69.304688 99.503906 -69.121094 C 98.21875 -68.476562 97.117188 -67.558594 95.832031 -66.089844 C 94.363281 -64.4375 93.078125 -62.601562 91.882812 -60.582031 C 91.515625 -59.847656 91.058594 -59.113281 90.691406 -58.289062 C 89.039062 -55.535156 87.476562 -52.6875 86.007812 -49.84375 C 84.082031 -46.078125 82.0625 -42.316406 79.949219 -38.554688 C 79.582031 -37.910156 79.125 -37.085938 78.757812 -36.351562 C 75.269531 -29.832031 71.230469 -22.855469 66 -14.59375 C 64.898438 -12.851562 63.613281 -11.105469 62.417969 -9.546875 C 61.960938 -8.8125 61.410156 -8.167969 60.949219 -7.527344 C 60.675781 -7.160156 60.398438 -6.882812 60.214844 -6.699219 C 60.125 -6.609375 60.03125 -6.515625 59.941406 -6.425781 C 59.480469 -5.964844 58.839844 -5.691406 58.195312 -5.691406 C 57.554688 -5.691406 57.09375 -5.875 56.726562 -6.332031 C 56.542969 -6.609375 56.175781 -7.066406 56.085938 -7.617188 C 56.085938 -8.078125 55.992188 -8.628906 56.085938 -9.179688 C 56.175781 -9.914062 56.269531 -10.554688 56.269531 -11.289062 C 56.453125 -13.125 56.726562 -15.144531 57.003906 -17.074219 C 57.644531 -21.753906 58.472656 -26.621094 59.207031 -31.300781 C 59.664062 -34.515625 60.214844 -37.820312 60.675781 -41.03125 C 61.410156 -45.894531 62.328125 -51.496094 63.519531 -56.910156 C 63.519531 -57.003906 63.519531 -57.09375 63.519531 -57.1875 C 63.613281 -57.460938 63.613281 -57.738281 63.703125 -58.011719 C 63.703125 -58.378906 63.519531 -58.746094 63.335938 -58.839844 C 63.0625 -59.207031 62.695312 -59.390625 62.328125 -59.390625 C 62.328125 -59.390625 62.328125 -59.390625 62.234375 -59.390625 C 61.59375 -59.296875 61.410156 -59.207031 61.226562 -59.023438 C 60.675781 -58.472656 59.941406 -57.828125 59.390625 -57.1875 C 57.738281 -54.984375 56.453125 -53.148438 55.167969 -51.21875 C 51.21875 -45.34375 48.28125 -40.753906 45.710938 -36.351562 C 44.058594 -33.503906 42.222656 -30.75 40.480469 -28.089844 C 39.378906 -26.4375 38.277344 -24.785156 37.269531 -23.132812 C 34.148438 -18.175781 30.476562 -13.769531 26.253906 -8.996094 C 24.785156 -7.25 23.039062 -5.691406 20.835938 -4.128906 C 19.183594 -2.9375 17.347656 -2.292969 15.511719 -2.292969 C 14.871094 -2.292969 14.136719 -2.386719 13.402344 -2.570312 C 10.738281 -3.304688 8.445312 -4.773438 6.976562 -6.976562 C 4.589844 -10.371094 3.578125 -14.136719 4.039062 -18.082031 C 4.589844 -22.582031 5.414062 -26.527344 6.699219 -30.015625 C 7.617188 -32.402344 8.902344 -35.433594 11.289062 -37.910156 C 11.566406 -38.277344 11.839844 -38.644531 12.117188 -39.011719 C 12.300781 -39.285156 12.207031 -40.203125 11.933594 -40.480469 C 11.65625 -40.753906 11.199219 -41.03125 10.832031 -41.03125 C 10.648438 -41.03125 10.554688 -40.9375 10.371094 -40.847656 C 9.820312 -40.386719 9.085938 -39.835938 8.535156 -39.195312 C 7.25 -37.636719 6.148438 -35.984375 5.414062 -34.238281 C 3.210938 -29.464844 1.742188 -24.140625 1.191406 -18.082031 C 0.917969 -15.511719 1.191406 -12.941406 2.019531 -10.464844 C 3.394531 -6.332031 5.597656 -3.304688 8.996094 -1.285156 C 11.015625 -0.0898438 13.308594 0.550781 15.605469 0.550781 C 18.265625 0.550781 20.746094 -0.367188 22.855469 -2.019531 C 24.507812 -3.304688 26.4375 -4.773438 27.90625 -6.425781 L 28.089844 -6.699219 C 31.210938 -10.28125 34.421875 -13.953125 37.175781 -17.808594 C 41.03125 -23.40625 45.527344 -30.015625 49.476562 -37.175781 C 50.484375 -38.921875 51.585938 -40.570312 52.597656 -42.132812 C 52.964844 -42.589844 53.238281 -43.050781 53.515625 -43.507812 C 53.789062 -43.96875 54.25 -44.425781 54.617188 -44.703125 C 54.617188 -44.792969 54.707031 -44.886719 54.800781 -44.976562 C 54.984375 -45.160156 55.351562 -45.34375 55.902344 -45.34375 C 56.175781 -45.34375 56.359375 -45.34375 56.542969 -45.253906 C 57.09375 -45.070312 57.738281 -44.609375 57.738281 -43.875 C 57.828125 -43.785156 57.828125 -43.691406 57.828125 -43.507812 C 57.921875 -43.050781 57.921875 -42.5 57.828125 -41.949219 C 57.738281 -41.214844 57.644531 -40.570312 57.460938 -39.929688 C 57.371094 -39.378906 57.277344 -38.828125 57.1875 -38.277344 C 56.910156 -36.535156 56.726562 -34.789062 56.453125 -33.136719 C 55.625 -27.90625 54.800781 -22.488281 54.066406 -17.074219 C 53.972656 -16.707031 53.972656 -16.339844 53.882812 -15.878906 C 53.421875 -12.484375 52.964844 -9.269531 53.054688 -6.332031 C 53.054688 -6.242188 53.054688 -6.242188 53.054688 -6.242188 C 53.054688 -5.691406 53.054688 -5.230469 53.054688 -4.773438 C 53.054688 -3.761719 53.054688 -2.9375 53.054688 -2.109375 C 53.054688 -1.46875 53.148438 -0.917969 53.238281 -0.367188 C 53.515625 0.640625 54.066406 1.191406 54.890625 1.191406 Z M 54.890625 1.191406 "></path></g></g></g><g fill="#0d090a" fill-opacity="1"><g transform="translate(101.849783, 92.231879)"><g><path d="M 0.367188 0.734375 C 0.824219 0.734375 1.191406 0.640625 1.558594 0.550781 C 1.925781 0.367188 2.292969 0.273438 2.570312 0.183594 C 2.9375 0.0898438 3.304688 -0.0898438 3.671875 -0.183594 C 4.957031 -0.640625 5.875 -1.191406 6.609375 -1.742188 C 7.800781 -2.753906 9.269531 -3.945312 10.554688 -5.230469 C 12.117188 -6.699219 13.769531 -8.445312 15.695312 -10.464844 C 15.972656 -10.832031 16.0625 -11.199219 15.972656 -11.382812 C 15.972656 -11.75 15.789062 -12.117188 15.511719 -12.390625 C 15.238281 -12.574219 14.960938 -12.667969 14.6875 -12.667969 C 14.320312 -12.667969 13.859375 -12.484375 13.585938 -12.117188 C 11.839844 -10.371094 10.097656 -8.535156 8.078125 -6.515625 C 7.617188 -6.148438 7.160156 -5.78125 6.792969 -5.414062 C 6.425781 -5.140625 6.058594 -4.863281 5.78125 -4.589844 C 4.496094 -3.304688 2.9375 -2.660156 1.558594 -2.203125 C 1.191406 -2.109375 0.917969 -2.109375 0.734375 -2.109375 C 0.640625 -2.109375 0.550781 -2.109375 0.457031 -2.019531 C 0.457031 -2.019531 0.367188 -2.019531 0.367188 -2.019531 C -0.0898438 -2.019531 -0.457031 -2.203125 -0.734375 -2.570312 C -1.007812 -2.9375 -1.101562 -3.394531 -1.007812 -3.761719 C -0.917969 -4.039062 -0.824219 -4.3125 -0.824219 -4.589844 C -0.640625 -5.230469 -0.457031 -5.875 -0.183594 -6.515625 C 0.640625 -8.261719 1.46875 -10.097656 2.570312 -11.839844 C 3.578125 -13.675781 4.773438 -15.421875 6.242188 -17.441406 C 7.527344 -19.277344 8.902344 -20.929688 10.28125 -22.582031 L 10.464844 -22.765625 C 10.921875 -23.316406 11.105469 -24.234375 10.371094 -24.785156 C 10.097656 -25.058594 9.820312 -25.152344 9.546875 -25.152344 C 9.085938 -25.152344 8.71875 -24.875 8.351562 -24.507812 C 7.894531 -23.867188 7.34375 -23.222656 6.792969 -22.582031 C 6.515625 -22.214844 6.332031 -21.9375 6.058594 -21.664062 C 5.597656 -21.113281 5.230469 -20.652344 4.863281 -20.195312 C 3.394531 -18.082031 2.292969 -16.429688 1.285156 -14.777344 C 0 -12.851562 -0.917969 -11.105469 -1.742188 -9.546875 C -2.570312 -8.078125 -3.121094 -6.515625 -3.394531 -4.863281 C -3.761719 -3.304688 -3.855469 -2.203125 -3.304688 -1.101562 C -2.753906 -0.0898438 -1.925781 0.367188 -0.550781 0.640625 C -0.273438 0.734375 0.0898438 0.734375 0.367188 0.734375 Z M 16.707031 -33.414062 C 16.980469 -33.414062 17.257812 -33.414062 17.441406 -33.597656 C 17.53125 -33.597656 17.625 -33.6875 17.714844 -33.6875 C 18.082031 -33.871094 18.359375 -34.054688 18.542969 -34.148438 C 19 -34.605469 19.644531 -35.15625 20.101562 -35.800781 C 20.195312 -35.890625 20.285156 -36.167969 20.285156 -36.257812 C 20.285156 -36.351562 20.285156 -36.441406 20.378906 -36.535156 C 20.195312 -37.175781 19.917969 -37.359375 19.734375 -37.542969 C 19.277344 -37.726562 18.910156 -37.820312 18.542969 -37.820312 C 18.175781 -37.820312 17.898438 -37.726562 17.53125 -37.636719 C 16.613281 -37.175781 15.878906 -36.625 15.238281 -35.890625 C 14.6875 -35.25 14.6875 -34.421875 15.144531 -33.964844 C 15.421875 -33.597656 16.0625 -33.414062 16.707031 -33.414062 Z M 16.707031 -33.414062 "></path></g></g></g><g fill="#0d090a" fill-opacity="1"><g transform="translate(115.802177, 92.231879)"><g><path d="M 16.339844 1.101562 C 16.339844 1.101562 16.429688 1.101562 16.429688 1.101562 C 18.726562 1.007812 20.929688 0.273438 23.132812 -1.191406 C 24.507812 -2.109375 25.886719 -3.210938 27.261719 -4.589844 C 28.640625 -5.964844 29.925781 -7.527344 30.933594 -8.996094 C 31.484375 -9.636719 31.945312 -10.28125 32.402344 -11.105469 C 32.585938 -11.382812 32.769531 -11.65625 32.953125 -12.023438 C 33.320312 -12.667969 33.230469 -13.402344 32.585938 -13.859375 C 32.402344 -14.042969 32.128906 -14.136719 31.851562 -14.136719 C 31.394531 -14.136719 31.027344 -13.859375 30.75 -13.585938 C 30.566406 -13.308594 30.382812 -13.035156 30.199219 -12.757812 C 30.109375 -12.484375 29.925781 -12.300781 29.742188 -12.117188 C 29.558594 -11.75 29.28125 -11.382812 29.007812 -10.921875 C 28.363281 -10.003906 27.722656 -8.996094 26.894531 -8.078125 C 25.335938 -6.332031 23.773438 -4.863281 22.121094 -3.671875 C 20.46875 -2.570312 18.910156 -1.925781 17.257812 -1.652344 C 16.980469 -1.652344 16.796875 -1.558594 16.613281 -1.558594 C 15.605469 -1.558594 15.144531 -2.292969 14.777344 -2.753906 C 13.675781 -4.496094 13.675781 -6.332031 13.769531 -7.894531 C 13.769531 -8.261719 13.769531 -8.535156 13.769531 -8.8125 C 13.769531 -9.453125 14.226562 -10.097656 14.871094 -10.1875 C 15.144531 -10.28125 15.328125 -10.28125 15.605469 -10.371094 C 16.0625 -10.464844 16.523438 -10.554688 16.796875 -10.648438 C 18.265625 -11.289062 19.734375 -12.023438 21.480469 -12.851562 C 22.855469 -13.492188 23.957031 -14.59375 25.058594 -16.339844 C 25.425781 -16.796875 25.703125 -17.257812 25.792969 -17.714844 C 26.160156 -18.632812 26.253906 -19.460938 26.160156 -20.195312 C 25.976562 -21.113281 25.703125 -21.847656 25.425781 -22.488281 C 25.058594 -23.039062 24.691406 -23.40625 24.140625 -23.683594 C 23.5 -23.957031 22.855469 -24.050781 22.121094 -24.050781 C 21.664062 -24.050781 21.113281 -24.050781 20.46875 -23.867188 C 19.644531 -23.773438 18.726562 -23.40625 17.898438 -23.039062 C 17.53125 -22.855469 17.257812 -22.765625 16.980469 -22.671875 C 16.796875 -22.582031 16.613281 -22.488281 16.523438 -22.488281 C 15.789062 -22.214844 15.054688 -21.9375 14.410156 -21.570312 C 12.484375 -20.285156 10.464844 -18.726562 8.261719 -16.707031 C 7.984375 -16.429688 7.617188 -16.339844 7.34375 -16.339844 C 7.160156 -16.339844 6.976562 -16.339844 6.792969 -16.429688 C 6.242188 -16.613281 5.964844 -17.164062 5.964844 -17.714844 C 5.964844 -17.898438 5.875 -18.265625 6.148438 -18.632812 L 6.515625 -19.460938 C 7.25 -20.652344 7.984375 -22.03125 8.71875 -23.316406 C 8.996094 -23.867188 9.546875 -24.324219 10.097656 -24.507812 C 11.289062 -24.875 12.300781 -25.609375 13.402344 -26.34375 C 13.675781 -26.527344 13.953125 -26.710938 14.226562 -26.804688 C 15.695312 -27.8125 17.074219 -28.914062 18.449219 -30.015625 C 18.816406 -30.292969 19.277344 -30.660156 19.644531 -30.933594 C 20.652344 -31.667969 21.664062 -32.402344 22.398438 -33.320312 C 22.671875 -33.6875 22.949219 -33.964844 23.222656 -34.238281 C 24.96875 -36.167969 26.527344 -38.003906 27.8125 -40.203125 C 29.191406 -42.589844 30.566406 -45.160156 30.933594 -48.007812 C 31.027344 -49.199219 31.117188 -50.210938 30.75 -51.21875 C 30.476562 -51.953125 30.015625 -52.320312 29.375 -52.414062 C 29.191406 -52.414062 29.007812 -52.414062 28.914062 -52.414062 C 28.273438 -52.414062 27.722656 -52.320312 27.171875 -52.046875 C 25.976562 -51.402344 24.785156 -50.667969 23.957031 -49.566406 C 23.222656 -48.648438 22.488281 -47.640625 21.847656 -46.8125 C 20.652344 -45.253906 19.550781 -43.691406 18.175781 -41.855469 C 17.898438 -41.398438 17.53125 -40.847656 17.164062 -40.386719 C 16.707031 -39.746094 16.15625 -39.011719 15.605469 -38.277344 C 15.054688 -37.453125 14.410156 -36.625 13.859375 -35.890625 C 13.035156 -34.789062 12.207031 -33.6875 11.382812 -32.585938 C 10.554688 -31.394531 9.636719 -30.109375 8.902344 -28.914062 C 7.617188 -26.804688 6.515625 -24.785156 5.691406 -23.222656 C 4.679688 -21.480469 3.761719 -19.734375 2.84375 -17.992188 C 2.476562 -17.347656 2.109375 -16.613281 1.835938 -15.972656 C 1.742188 -15.789062 1.652344 -15.605469 1.558594 -15.421875 C 1.375 -15.054688 1.101562 -14.59375 0.824219 -14.226562 C -0.0898438 -12.757812 -0.917969 -11.199219 -1.742188 -9.179688 C -2.109375 -8.351562 -2.386719 -7.617188 -2.753906 -6.882812 C -3.488281 -5.324219 -4.40625 -3.394531 -4.863281 -1.375 C -4.957031 -0.640625 -4.496094 0.367188 -3.761719 0.640625 C -3.578125 0.734375 -3.394531 0.824219 -3.210938 0.824219 C -2.9375 0.824219 -2.570312 0.734375 -2.292969 0.457031 C -1.558594 -0.457031 -0.824219 -1.46875 -0.0898438 -2.476562 C 0.183594 -2.9375 0.457031 -3.304688 0.734375 -3.761719 C 1.101562 -4.222656 1.375 -4.773438 1.742188 -5.230469 C 2.109375 -5.78125 2.476562 -6.242188 2.84375 -6.699219 C 3.210938 -7.160156 3.578125 -7.617188 3.855469 -7.984375 C 4.222656 -8.535156 5.140625 -9.730469 6.699219 -9.730469 C 6.976562 -9.730469 7.160156 -9.636719 7.433594 -9.636719 C 7.527344 -9.636719 7.617188 -9.636719 7.800781 -9.636719 C 8.261719 -9.636719 8.71875 -9.636719 9.179688 -9.636719 L 9.730469 -9.546875 C 10.464844 -9.546875 11.015625 -8.996094 11.015625 -8.261719 C 11.015625 -8.167969 11.105469 -8.167969 11.105469 -8.078125 C 11.105469 -7.984375 11.105469 -7.894531 11.105469 -7.800781 C 11.105469 -7.527344 11.105469 -7.25 11.105469 -7.066406 C 11.105469 -5.78125 11.105469 -4.589844 11.566406 -3.578125 C 12.207031 -1.835938 12.757812 -0.457031 14.042969 0.367188 C 14.777344 0.824219 15.511719 1.101562 16.339844 1.101562 Z M 21.9375 -21.480469 C 22.488281 -21.480469 22.949219 -21.203125 23.132812 -20.746094 C 23.867188 -19.460938 23.222656 -18.449219 23.039062 -18.175781 C 22.214844 -16.523438 20.835938 -15.328125 19.09375 -14.59375 C 18.816406 -14.503906 18.632812 -14.410156 18.449219 -14.320312 C 17.808594 -13.953125 17.074219 -13.675781 16.429688 -13.402344 C 15.972656 -13.21875 15.511719 -13.125 15.054688 -13.035156 C 14.503906 -12.851562 13.769531 -12.667969 12.941406 -12.574219 C 12.574219 -12.484375 12.300781 -12.484375 11.933594 -12.390625 C 11.839844 -12.390625 11.65625 -12.390625 11.566406 -12.390625 C 11.472656 -12.390625 11.472656 -12.390625 11.382812 -12.390625 C 10.832031 -12.390625 10.1875 -12.757812 10.097656 -13.402344 L 10.003906 -13.675781 C 9.914062 -14.136719 10.003906 -14.59375 10.371094 -14.960938 C 13.769531 -18.359375 17.441406 -20.46875 21.664062 -21.386719 C 21.753906 -21.386719 21.847656 -21.480469 21.9375 -21.480469 Z M 25.792969 -46.8125 C 26.070312 -46.8125 26.34375 -46.722656 26.621094 -46.539062 L 26.804688 -46.445312 C 27.261719 -46.078125 27.445312 -45.34375 27.261719 -44.792969 C 25.242188 -40.386719 22.214844 -36.902344 19.734375 -34.421875 C 19.460938 -34.148438 19.09375 -33.964844 18.726562 -33.964844 C 18.449219 -33.964844 18.082031 -34.054688 17.808594 -34.332031 L 17.714844 -34.421875 C 17.164062 -34.882812 17.074219 -35.707031 17.441406 -36.257812 L 24.691406 -46.261719 C 24.96875 -46.628906 25.425781 -46.8125 25.792969 -46.8125 Z M 25.792969 -46.8125 "></path></g></g></g><g fill="#0d090a" fill-opacity="1"><g transform="translate(146.919712, 92.231879)"><g><path d="M 20.746094 0.550781 C 21.386719 0.550781 22.03125 0.457031 22.765625 0.183594 C 24.691406 -0.550781 26.34375 -1.742188 27.722656 -2.753906 C 29.742188 -4.3125 31.300781 -5.875 32.496094 -7.433594 C 32.863281 -7.894531 33.230469 -8.351562 33.503906 -8.8125 C 34.054688 -9.546875 34.515625 -10.1875 35.066406 -10.921875 C 35.339844 -11.382812 35.339844 -11.839844 35.066406 -12.300781 C 34.789062 -12.757812 34.421875 -12.941406 33.964844 -12.941406 C 33.871094 -12.941406 33.78125 -12.941406 33.6875 -12.941406 C 33.414062 -12.941406 33.136719 -12.757812 32.679688 -12.207031 C 32.496094 -12.023438 32.402344 -11.75 32.21875 -11.566406 C 31.394531 -10.464844 30.660156 -9.269531 29.742188 -8.261719 C 27.996094 -6.242188 25.792969 -4.496094 23.039062 -2.84375 C 22.765625 -2.753906 22.488281 -2.660156 22.304688 -2.570312 C 22.214844 -2.476562 22.121094 -2.476562 22.03125 -2.386719 C 21.847656 -2.292969 21.664062 -2.292969 21.480469 -2.292969 C 21.203125 -2.292969 20.835938 -2.386719 20.652344 -2.570312 L 20.46875 -2.753906 C 20.011719 -3.027344 19.828125 -3.578125 19.917969 -4.039062 C 19.917969 -4.222656 20.011719 -4.3125 20.011719 -4.496094 C 20.101562 -4.863281 20.101562 -5.230469 20.285156 -5.691406 C 20.46875 -6.242188 20.746094 -6.699219 21.019531 -7.25 C 21.113281 -7.527344 21.296875 -7.894531 21.386719 -8.167969 C 21.664062 -8.71875 21.847656 -9.269531 22.121094 -9.820312 C 22.304688 -10.371094 22.582031 -10.921875 22.765625 -11.472656 C 22.949219 -11.839844 23.132812 -12.207031 23.316406 -12.574219 C 23.589844 -13.125 23.867188 -13.769531 24.050781 -14.320312 C 24.507812 -15.511719 24.785156 -16.796875 24.875 -18.175781 C 24.96875 -19.09375 24.140625 -20.46875 23.316406 -20.746094 C 22.855469 -20.835938 22.398438 -20.929688 22.03125 -20.929688 C 21.664062 -20.929688 21.386719 -20.835938 21.019531 -20.746094 C 19.828125 -20.46875 18.632812 -19.734375 17.53125 -18.910156 C 15.789062 -17.808594 14.136719 -16.339844 12.207031 -14.320312 C 11.933594 -14.136719 11.75 -13.859375 11.472656 -13.675781 C 11.105469 -13.21875 10.648438 -12.757812 10.1875 -12.300781 C 8.902344 -11.015625 7.617188 -9.820312 6.425781 -8.71875 C 5.691406 -8.078125 4.863281 -7.34375 4.039062 -6.609375 C 3.671875 -6.242188 3.304688 -5.875 2.9375 -5.507812 C 2.660156 -5.324219 2.292969 -5.140625 1.925781 -5.140625 C 1.742188 -5.140625 1.46875 -5.230469 1.191406 -5.414062 C 0.734375 -5.691406 0.457031 -6.332031 0.640625 -6.976562 C 0.734375 -7.25 0.824219 -7.433594 0.917969 -7.710938 C 1.007812 -8.167969 1.191406 -8.535156 1.285156 -8.996094 C 1.925781 -10.921875 2.660156 -12.851562 3.855469 -14.777344 C 3.945312 -14.960938 4.039062 -15.144531 4.128906 -15.328125 C 4.3125 -15.605469 4.496094 -15.789062 4.589844 -16.0625 C 5.140625 -17.164062 5.597656 -18.082031 6.058594 -19 C 6.242188 -19.460938 6.882812 -20.835938 8.445312 -20.835938 C 8.628906 -20.835938 8.71875 -20.835938 8.902344 -20.746094 C 9.179688 -20.929688 9.453125 -21.019531 9.636719 -21.113281 C 10.464844 -21.386719 11.199219 -21.753906 11.839844 -22.121094 C 12.667969 -22.582031 13.402344 -23.132812 14.226562 -23.683594 C 14.410156 -23.867188 14.59375 -24.050781 14.777344 -24.140625 C 15.144531 -24.324219 15.421875 -24.601562 15.695312 -24.875 C 15.972656 -25.058594 16.246094 -25.335938 16.429688 -25.519531 C 16.890625 -25.792969 17.257812 -26.070312 17.625 -26.34375 C 18.359375 -26.894531 19 -27.445312 19.644531 -27.996094 C 21.203125 -29.28125 22.398438 -30.382812 23.589844 -31.578125 C 24.691406 -32.863281 25.703125 -34.054688 26.527344 -35.339844 C 27.078125 -36.257812 27.722656 -37.175781 28.273438 -38.1875 C 28.824219 -39.101562 29.28125 -40.019531 29.925781 -40.9375 C 30.75 -42.222656 31.210938 -43.691406 31.667969 -45.160156 C 32.3125 -47.089844 32.585938 -48.742188 32.496094 -50.394531 C 32.496094 -51.402344 32.035156 -52.136719 31.027344 -52.871094 C 30.75 -52.964844 30.476562 -52.964844 30.292969 -52.964844 C 29.558594 -52.964844 29.007812 -52.78125 28.640625 -52.503906 C 27.722656 -51.769531 26.710938 -50.851562 25.609375 -49.75 C 24.875 -49.015625 24.324219 -48.28125 23.683594 -47.457031 C 23.40625 -47.179688 23.222656 -46.90625 22.949219 -46.539062 C 21.9375 -45.34375 21.019531 -44.242188 20.011719 -43.050781 C 19.09375 -41.855469 18.082031 -40.570312 17.074219 -39.378906 C 16.890625 -39.195312 16.707031 -39.011719 16.613281 -38.828125 C 16.429688 -38.644531 16.246094 -38.460938 16.0625 -38.277344 C 15.695312 -37.726562 15.238281 -37.175781 14.871094 -36.625 C 14.410156 -36.167969 14.042969 -35.617188 13.675781 -35.15625 C 13.492188 -34.972656 13.308594 -34.789062 13.125 -34.605469 C 12.941406 -34.421875 12.851562 -34.238281 12.667969 -34.054688 C 12.390625 -33.597656 12.117188 -33.230469 11.839844 -32.769531 C 11.382812 -32.035156 10.832031 -31.300781 10.28125 -30.566406 C 8.71875 -28.640625 7.617188 -26.988281 6.699219 -25.335938 C 6.332031 -24.875 6.058594 -24.324219 5.691406 -23.773438 C 4.957031 -22.488281 4.222656 -21.113281 3.488281 -19.828125 C 3.304688 -19.460938 3.121094 -19 2.84375 -18.542969 C 2.570312 -17.992188 2.292969 -17.257812 1.925781 -16.707031 C 1.285156 -15.695312 0.640625 -14.6875 0.273438 -13.585938 C -0.0898438 -12.667969 -0.550781 -11.65625 -0.917969 -10.648438 C -1.375 -9.453125 -1.925781 -8.167969 -2.386719 -6.882812 C -2.9375 -5.414062 -3.304688 -3.855469 -3.488281 -2.109375 C -3.488281 -1.191406 -3.210938 -0.457031 -2.476562 0.183594 C -2.386719 0.273438 -2.109375 0.457031 -1.925781 0.457031 C -1.375 0.367188 -0.640625 0.273438 0.183594 0.0898438 C 0.273438 0 0.550781 -0.183594 0.734375 -0.273438 C 0.824219 -0.367188 0.917969 -0.457031 1.007812 -0.550781 C 1.375 -0.824219 1.835938 -1.101562 2.203125 -1.375 C 3.027344 -1.925781 3.761719 -2.386719 4.3125 -3.027344 C 4.957031 -3.761719 5.597656 -4.3125 6.242188 -4.957031 C 6.425781 -5.140625 6.609375 -5.230469 6.699219 -5.414062 C 6.976562 -5.597656 7.160156 -5.78125 7.34375 -5.964844 C 7.527344 -6.148438 7.710938 -6.242188 7.800781 -6.425781 C 8.167969 -6.699219 8.535156 -7.066406 8.8125 -7.433594 C 9.363281 -7.894531 9.820312 -8.445312 10.371094 -8.902344 C 10.554688 -9.085938 10.738281 -9.269531 10.921875 -9.453125 C 11.839844 -10.28125 12.851562 -11.199219 13.769531 -12.207031 C 14.777344 -13.21875 15.972656 -14.226562 17.074219 -15.144531 C 17.441406 -15.511719 17.808594 -15.878906 18.175781 -16.15625 C 18.449219 -16.429688 18.726562 -16.613281 19 -16.796875 C 19.09375 -16.796875 19.183594 -16.890625 19.277344 -16.980469 C 19.550781 -17.074219 19.828125 -17.164062 20.101562 -17.164062 C 20.46875 -17.164062 20.835938 -16.980469 21.113281 -16.707031 L 21.203125 -16.613281 C 21.570312 -16.15625 21.664062 -15.605469 21.480469 -15.054688 C 21.386719 -14.960938 21.296875 -14.777344 21.296875 -14.59375 C 21.113281 -14.320312 21.019531 -13.953125 20.835938 -13.675781 C 20.652344 -13.21875 20.378906 -12.667969 20.195312 -12.117188 C 19.734375 -11.015625 19.277344 -9.914062 18.726562 -8.71875 C 17.992188 -7.25 17.347656 -5.597656 16.707031 -3.394531 C 16.523438 -2.9375 16.613281 -2.570312 16.796875 -2.109375 C 16.796875 -2.109375 16.890625 -2.109375 16.890625 -2.019531 C 16.980469 -1.925781 17.164062 -1.652344 17.257812 -1.375 C 17.441406 -0.550781 18.082031 -0.0898438 19.460938 0.367188 C 19.917969 0.550781 20.285156 0.550781 20.746094 0.550781 Z M 27.171875 -46.628906 C 27.445312 -46.628906 27.628906 -46.628906 27.8125 -46.539062 L 28.089844 -46.355469 C 28.640625 -46.078125 28.914062 -45.4375 28.730469 -44.792969 C 28.730469 -44.703125 28.640625 -44.609375 28.640625 -44.519531 C 28.546875 -44.242188 28.457031 -43.875 28.273438 -43.417969 C 27.90625 -42.867188 27.539062 -42.222656 27.261719 -41.671875 C 26.253906 -40.019531 25.242188 -38.277344 24.140625 -36.625 C 21.753906 -33.136719 18.542969 -30.382812 15.511719 -27.996094 C 15.238281 -27.8125 14.960938 -27.722656 14.777344 -27.628906 C 14.6875 -27.628906 14.59375 -27.628906 14.503906 -27.539062 C 14.320312 -27.539062 14.226562 -27.445312 14.042969 -27.445312 C 13.585938 -27.445312 13.21875 -27.628906 12.941406 -27.996094 C 12.574219 -28.457031 12.574219 -29.097656 12.941406 -29.648438 C 13.035156 -29.742188 13.125 -29.925781 13.125 -30.015625 C 13.308594 -30.292969 13.492188 -30.476562 13.585938 -30.660156 C 14.6875 -32.035156 15.511719 -33.136719 16.429688 -34.332031 C 17.074219 -35.25 17.808594 -36.074219 18.449219 -36.992188 C 18.632812 -37.175781 18.816406 -37.359375 19 -37.636719 C 19.183594 -37.726562 19.367188 -37.910156 19.460938 -38.09375 C 20.195312 -39.011719 21.019531 -40.019531 21.753906 -40.9375 C 22.671875 -42.039062 23.589844 -43.140625 24.507812 -44.335938 C 24.875 -44.792969 25.242188 -45.160156 25.703125 -45.621094 C 25.792969 -45.804688 25.976562 -45.988281 26.160156 -46.171875 C 26.4375 -46.539062 26.804688 -46.628906 27.171875 -46.628906 Z M 27.171875 -46.628906 "></path></g></g></g><g fill="#0d090a" fill-opacity="1"><g transform="translate(180.423833, 92.231879)"><g><path d="M 0.367188 0.734375 C 0.824219 0.734375 1.191406 0.640625 1.558594 0.550781 C 1.925781 0.367188 2.292969 0.273438 2.570312 0.183594 C 2.9375 0.0898438 3.304688 -0.0898438 3.671875 -0.183594 C 4.957031 -0.640625 5.875 -1.191406 6.609375 -1.742188 C 7.800781 -2.753906 9.269531 -3.945312 10.554688 -5.230469 C 12.117188 -6.699219 13.769531 -8.445312 15.695312 -10.464844 C 15.972656 -10.832031 16.0625 -11.199219 15.972656 -11.382812 C 15.972656 -11.75 15.789062 -12.117188 15.511719 -12.390625 C 15.238281 -12.574219 14.960938 -12.667969 14.6875 -12.667969 C 14.320312 -12.667969 13.859375 -12.484375 13.585938 -12.117188 C 11.839844 -10.371094 10.097656 -8.535156 8.078125 -6.515625 C 7.617188 -6.148438 7.160156 -5.78125 6.792969 -5.414062 C 6.425781 -5.140625 6.058594 -4.863281 5.78125 -4.589844 C 4.496094 -3.304688 2.9375 -2.660156 1.558594 -2.203125 C 1.191406 -2.109375 0.917969 -2.109375 0.734375 -2.109375 C 0.640625 -2.109375 0.550781 -2.109375 0.457031 -2.019531 C 0.457031 -2.019531 0.367188 -2.019531 0.367188 -2.019531 C -0.0898438 -2.019531 -0.457031 -2.203125 -0.734375 -2.570312 C -1.007812 -2.9375 -1.101562 -3.394531 -1.007812 -3.761719 C -0.917969 -4.039062 -0.824219 -4.3125 -0.824219 -4.589844 C -0.640625 -5.230469 -0.457031 -5.875 -0.183594 -6.515625 C 0.640625 -8.261719 1.46875 -10.097656 2.570312 -11.839844 C 3.578125 -13.675781 4.773438 -15.421875 6.242188 -17.441406 C 7.527344 -19.277344 8.902344 -20.929688 10.28125 -22.582031 L 10.464844 -22.765625 C 10.921875 -23.316406 11.105469 -24.234375 10.371094 -24.785156 C 10.097656 -25.058594 9.820312 -25.152344 9.546875 -25.152344 C 9.085938 -25.152344 8.71875 -24.875 8.351562 -24.507812 C 7.894531 -23.867188 7.34375 -23.222656 6.792969 -22.582031 C 6.515625 -22.214844 6.332031 -21.9375 6.058594 -21.664062 C 5.597656 -21.113281 5.230469 -20.652344 4.863281 -20.195312 C 3.394531 -18.082031 2.292969 -16.429688 1.285156 -14.777344 C 0 -12.851562 -0.917969 -11.105469 -1.742188 -9.546875 C -2.570312 -8.078125 -3.121094 -6.515625 -3.394531 -4.863281 C -3.761719 -3.304688 -3.855469 -2.203125 -3.304688 -1.101562 C -2.753906 -0.0898438 -1.925781 0.367188 -0.550781 0.640625 C -0.273438 0.734375 0.0898438 0.734375 0.367188 0.734375 Z M 16.707031 -33.414062 C 16.980469 -33.414062 17.257812 -33.414062 17.441406 -33.597656 C 17.53125 -33.597656 17.625 -33.6875 17.714844 -33.6875 C 18.082031 -33.871094 18.359375 -34.054688 18.542969 -34.148438 C 19 -34.605469 19.644531 -35.15625 20.101562 -35.800781 C 20.195312 -35.890625 20.285156 -36.167969 20.285156 -36.257812 C 20.285156 -36.351562 20.285156 -36.441406 20.378906 -36.535156 C 20.195312 -37.175781 19.917969 -37.359375 19.734375 -37.542969 C 19.277344 -37.726562 18.910156 -37.820312 18.542969 -37.820312 C 18.175781 -37.820312 17.898438 -37.726562 17.53125 -37.636719 C 16.613281 -37.175781 15.878906 -36.625 15.238281 -35.890625 C 14.6875 -35.25 14.6875 -34.421875 15.144531 -33.964844 C 15.421875 -33.597656 16.0625 -33.414062 16.707031 -33.414062 Z M 16.707031 -33.414062 "></path></g></g></g><g fill="#0d090a" fill-opacity="1"><g transform="translate(194.376233, 92.231879)"><g><path d="M 1.925781 0.183594 C 2.570312 0.183594 3.304688 0 3.945312 -0.273438 C 5.691406 -0.917969 7.066406 -1.652344 8.445312 -2.660156 C 10.648438 -4.222656 12.667969 -6.058594 14.59375 -7.984375 L 15.144531 -8.445312 C 16.15625 -9.363281 17.164062 -10.464844 18.082031 -11.566406 C 18.542969 -12.023438 19 -12.484375 19.460938 -13.035156 C 20.011719 -13.585938 20.011719 -14.320312 19.550781 -14.871094 C 19.277344 -15.144531 19 -15.328125 18.542969 -15.328125 C 18.265625 -15.328125 17.992188 -15.238281 17.714844 -14.960938 C 17.625 -14.960938 17.53125 -14.871094 17.441406 -14.777344 C 17.164062 -14.59375 16.980469 -14.503906 16.890625 -14.320312 C 16.707031 -14.226562 16.523438 -14.042969 16.429688 -13.953125 C 15.972656 -13.585938 15.605469 -13.21875 15.421875 -12.941406 C 14.777344 -11.839844 13.953125 -11.015625 13.125 -10.28125 C 13.035156 -10.097656 12.941406 -10.003906 12.757812 -9.914062 C 12.023438 -9.085938 11.105469 -8.261719 9.914062 -7.25 C 8.71875 -6.242188 7.433594 -5.140625 5.964844 -4.222656 C 5.230469 -3.671875 3.945312 -2.9375 2.292969 -2.570312 C 2.203125 -2.570312 2.109375 -2.570312 2.019531 -2.570312 C 1.652344 -2.570312 1.375 -2.660156 1.101562 -2.9375 C 0.734375 -3.210938 0.640625 -3.578125 0.640625 -4.039062 C 0.640625 -4.128906 0.640625 -4.3125 0.640625 -4.40625 C 0.640625 -4.679688 0.640625 -4.863281 0.734375 -5.140625 C 0.734375 -5.414062 0.824219 -5.691406 0.824219 -5.875 C 0.917969 -6.148438 1.007812 -6.515625 1.007812 -6.699219 C 1.191406 -8.445312 1.835938 -10.003906 2.386719 -11.472656 C 2.476562 -11.75 2.660156 -12.023438 2.753906 -12.300781 C 3.210938 -13.402344 4.039062 -13.953125 4.679688 -14.226562 L 4.863281 -14.320312 C 5.875 -14.871094 6.792969 -15.328125 7.617188 -15.878906 C 9.085938 -16.890625 10.464844 -17.898438 11.75 -19 C 13.125 -20.101562 14.410156 -21.386719 15.695312 -22.582031 C 16.339844 -23.222656 16.980469 -23.867188 17.625 -24.507812 C 17.898438 -24.875 18.265625 -25.242188 18.542969 -25.519531 C 18.726562 -25.792969 19 -25.976562 19.183594 -26.160156 C 19.460938 -26.4375 19.734375 -26.710938 20.011719 -27.078125 L 20.46875 -27.539062 C 22.03125 -29.464844 23.589844 -31.300781 25.058594 -33.230469 C 25.152344 -33.414062 25.335938 -33.597656 25.519531 -33.78125 C 26.804688 -35.523438 28.089844 -37.175781 29.007812 -39.011719 C 30.84375 -42.5 31.851562 -45.253906 32.402344 -47.914062 C 32.585938 -48.742188 32.585938 -49.476562 32.402344 -50.484375 C 32.21875 -51.21875 31.761719 -51.863281 31.117188 -52.414062 C 31.027344 -52.503906 30.566406 -52.6875 29.742188 -52.6875 C 29.097656 -52.6875 28.546875 -52.503906 28.457031 -52.414062 C 26.710938 -51.035156 25.335938 -49.660156 24.140625 -48.28125 C 23.589844 -47.730469 23.132812 -47.179688 22.671875 -46.628906 L 22.398438 -46.171875 C 22.121094 -45.894531 21.847656 -45.621094 21.664062 -45.253906 C 20.929688 -44.519531 20.378906 -43.785156 19.734375 -42.957031 C 19.277344 -42.316406 18.726562 -41.488281 18.265625 -40.847656 C 17.898438 -40.203125 17.53125 -39.652344 17.074219 -39.101562 C 16.613281 -38.371094 16.0625 -37.726562 15.605469 -36.992188 C 15.238281 -36.535156 14.871094 -36.074219 14.503906 -35.523438 C 13.308594 -33.964844 12.117188 -32.3125 10.921875 -30.660156 C 10.28125 -29.832031 9.730469 -29.007812 9.085938 -28.179688 C 8.902344 -27.8125 8.628906 -27.539062 8.351562 -27.171875 C 7.894531 -26.527344 7.34375 -25.792969 6.882812 -25.152344 C 6.515625 -24.601562 6.148438 -23.957031 5.78125 -23.316406 C 5.507812 -22.949219 5.230469 -22.488281 4.957031 -22.121094 C 4.773438 -21.9375 4.679688 -21.664062 4.496094 -21.570312 C 4.40625 -21.386719 4.222656 -21.203125 4.128906 -21.019531 C 2.84375 -18.449219 1.558594 -15.878906 0.550781 -13.953125 C -0.367188 -12.117188 -1.007812 -10.371094 -1.375 -8.628906 C -1.742188 -6.976562 -2.019531 -5.230469 -2.019531 -3.488281 C -2.019531 -1.652344 -1.191406 -0.550781 0.550781 0 C 1.007812 0.0898438 1.46875 0.183594 1.925781 0.183594 Z M 27.445312 -47.363281 C 27.628906 -47.363281 27.722656 -47.363281 27.90625 -47.273438 C 28.363281 -47.179688 28.730469 -46.722656 28.824219 -46.261719 C 29.007812 -45.070312 28.640625 -44.335938 28.363281 -43.785156 C 28.363281 -43.691406 28.273438 -43.601562 28.273438 -43.507812 C 27.078125 -40.847656 25.976562 -38.828125 24.601562 -36.992188 L 24.050781 -36.351562 C 22.03125 -33.6875 20.011719 -31.027344 17.714844 -28.546875 C 16.613281 -27.261719 15.421875 -25.976562 14.226562 -24.875 C 13.769531 -24.417969 13.308594 -23.957031 12.851562 -23.5 C 12.484375 -23.039062 11.933594 -22.855469 11.289062 -22.855469 C 10.738281 -22.855469 10.28125 -23.132812 10.003906 -23.589844 C 9.820312 -24.050781 9.820312 -24.601562 10.1875 -24.96875 C 10.371094 -25.335938 10.554688 -25.609375 10.738281 -25.886719 C 11.289062 -26.527344 11.75 -27.171875 12.207031 -27.90625 C 12.574219 -28.273438 12.941406 -28.730469 13.21875 -29.191406 C 13.675781 -29.742188 14.136719 -30.382812 14.503906 -30.933594 C 15.878906 -32.863281 17.164062 -34.515625 18.265625 -36.074219 C 18.910156 -36.992188 19.460938 -37.910156 20.101562 -38.828125 C 20.5625 -39.46875 21.019531 -40.113281 21.480469 -40.847656 L 21.570312 -40.847656 C 22.488281 -42.222656 23.40625 -43.507812 24.691406 -44.703125 C 24.875 -44.976562 25.058594 -45.253906 25.242188 -45.527344 C 25.425781 -45.710938 25.519531 -45.894531 25.703125 -46.078125 C 25.886719 -46.355469 26.070312 -46.445312 26.253906 -46.628906 C 26.253906 -46.722656 26.34375 -46.8125 26.4375 -46.90625 C 26.710938 -47.179688 27.078125 -47.363281 27.445312 -47.363281 Z M 27.445312 -47.363281 "></path></g></g></g><g fill="#0d090a" fill-opacity="1"><g transform="translate(211.265985, 92.231879)"><g></g></g></g><g fill="#0d090a" fill-opacity="1"><g transform="translate(225.034806, 92.231879)"><g><path d="M 54.890625 1.191406 C 55.167969 1.191406 55.535156 1.101562 55.808594 1.007812 C 56.726562 0.640625 57.554688 0.0898438 58.472656 -0.824219 C 60.492188 -2.570312 62.417969 -4.679688 64.4375 -7.25 C 68.660156 -12.851562 72.242188 -18.910156 75.636719 -24.875 C 78.023438 -28.914062 80.316406 -33.230469 82.613281 -37.269531 C 83.4375 -38.738281 84.265625 -40.203125 85.089844 -41.671875 C 85.824219 -43.050781 86.46875 -44.335938 87.109375 -45.621094 C 89.496094 -50.484375 92.160156 -55.167969 94.636719 -59.480469 C 96.015625 -61.777344 97.941406 -64.714844 100.972656 -66.734375 C 101.15625 -66.917969 101.339844 -67.101562 101.523438 -67.285156 C 101.980469 -67.835938 101.980469 -68.292969 101.796875 -68.570312 C 101.429688 -69.394531 100.972656 -69.394531 100.789062 -69.394531 C 100.238281 -69.394531 99.777344 -69.304688 99.503906 -69.121094 C 98.21875 -68.476562 97.117188 -67.558594 95.832031 -66.089844 C 94.363281 -64.4375 93.078125 -62.601562 91.882812 -60.582031 C 91.515625 -59.847656 91.058594 -59.113281 90.691406 -58.289062 C 89.039062 -55.535156 87.476562 -52.6875 86.007812 -49.84375 C 84.082031 -46.078125 82.0625 -42.316406 79.949219 -38.554688 C 79.582031 -37.910156 79.125 -37.085938 78.757812 -36.351562 C 75.269531 -29.832031 71.230469 -22.855469 66 -14.59375 C 64.898438 -12.851562 63.613281 -11.105469 62.417969 -9.546875 C 61.960938 -8.8125 61.410156 -8.167969 60.949219 -7.527344 C 60.675781 -7.160156 60.398438 -6.882812 60.214844 -6.699219 C 60.125 -6.609375 60.03125 -6.515625 59.941406 -6.425781 C 59.480469 -5.964844 58.839844 -5.691406 58.195312 -5.691406 C 57.554688 -5.691406 57.09375 -5.875 56.726562 -6.332031 C 56.542969 -6.609375 56.175781 -7.066406 56.085938 -7.617188 C 56.085938 -8.078125 55.992188 -8.628906 56.085938 -9.179688 C 56.175781 -9.914062 56.269531 -10.554688 56.269531 -11.289062 C 56.453125 -13.125 56.726562 -15.144531 57.003906 -17.074219 C 57.644531 -21.753906 58.472656 -26.621094 59.207031 -31.300781 C 59.664062 -34.515625 60.214844 -37.820312 60.675781 -41.03125 C 61.410156 -45.894531 62.328125 -51.496094 63.519531 -56.910156 C 63.519531 -57.003906 63.519531 -57.09375 63.519531 -57.1875 C 63.613281 -57.460938 63.613281 -57.738281 63.703125 -58.011719 C 63.703125 -58.378906 63.519531 -58.746094 63.335938 -58.839844 C 63.0625 -59.207031 62.695312 -59.390625 62.328125 -59.390625 C 62.328125 -59.390625 62.328125 -59.390625 62.234375 -59.390625 C 61.59375 -59.296875 61.410156 -59.207031 61.226562 -59.023438 C 60.675781 -58.472656 59.941406 -57.828125 59.390625 -57.1875 C 57.738281 -54.984375 56.453125 -53.148438 55.167969 -51.21875 C 51.21875 -45.34375 48.28125 -40.753906 45.710938 -36.351562 C 44.058594 -33.503906 42.222656 -30.75 40.480469 -28.089844 C 39.378906 -26.4375 38.277344 -24.785156 37.269531 -23.132812 C 34.148438 -18.175781 30.476562 -13.769531 26.253906 -8.996094 C 24.785156 -7.25 23.039062 -5.691406 20.835938 -4.128906 C 19.183594 -2.9375 17.347656 -2.292969 15.511719 -2.292969 C 14.871094 -2.292969 14.136719 -2.386719 13.402344 -2.570312 C 10.738281 -3.304688 8.445312 -4.773438 6.976562 -6.976562 C 4.589844 -10.371094 3.578125 -14.136719 4.039062 -18.082031 C 4.589844 -22.582031 5.414062 -26.527344 6.699219 -30.015625 C 7.617188 -32.402344 8.902344 -35.433594 11.289062 -37.910156 C 11.566406 -38.277344 11.839844 -38.644531 12.117188 -39.011719 C 12.300781 -39.285156 12.207031 -40.203125 11.933594 -40.480469 C 11.65625 -40.753906 11.199219 -41.03125 10.832031 -41.03125 C 10.648438 -41.03125 10.554688 -40.9375 10.371094 -40.847656 C 9.820312 -40.386719 9.085938 -39.835938 8.535156 -39.195312 C 7.25 -37.636719 6.148438 -35.984375 5.414062 -34.238281 C 3.210938 -29.464844 1.742188 -24.140625 1.191406 -18.082031 C 0.917969 -15.511719 1.191406 -12.941406 2.019531 -10.464844 C 3.394531 -6.332031 5.597656 -3.304688 8.996094 -1.285156 C 11.015625 -0.0898438 13.308594 0.550781 15.605469 0.550781 C 18.265625 0.550781 20.746094 -0.367188 22.855469 -2.019531 C 24.507812 -3.304688 26.4375 -4.773438 27.90625 -6.425781 L 28.089844 -6.699219 C 31.210938 -10.28125 34.421875 -13.953125 37.175781 -17.808594 C 41.03125 -23.40625 45.527344 -30.015625 49.476562 -37.175781 C 50.484375 -38.921875 51.585938 -40.570312 52.597656 -42.132812 C 52.964844 -42.589844 53.238281 -43.050781 53.515625 -43.507812 C 53.789062 -43.96875 54.25 -44.425781 54.617188 -44.703125 C 54.617188 -44.792969 54.707031 -44.886719 54.800781 -44.976562 C 54.984375 -45.160156 55.351562 -45.34375 55.902344 -45.34375 C 56.175781 -45.34375 56.359375 -45.34375 56.542969 -45.253906 C 57.09375 -45.070312 57.738281 -44.609375 57.738281 -43.875 C 57.828125 -43.785156 57.828125 -43.691406 57.828125 -43.507812 C 57.921875 -43.050781 57.921875 -42.5 57.828125 -41.949219 C 57.738281 -41.214844 57.644531 -40.570312 57.460938 -39.929688 C 57.371094 -39.378906 57.277344 -38.828125 57.1875 -38.277344 C 56.910156 -36.535156 56.726562 -34.789062 56.453125 -33.136719 C 55.625 -27.90625 54.800781 -22.488281 54.066406 -17.074219 C 53.972656 -16.707031 53.972656 -16.339844 53.882812 -15.878906 C 53.421875 -12.484375 52.964844 -9.269531 53.054688 -6.332031 C 53.054688 -6.242188 53.054688 -6.242188 53.054688 -6.242188 C 53.054688 -5.691406 53.054688 -5.230469 53.054688 -4.773438 C 53.054688 -3.761719 53.054688 -2.9375 53.054688 -2.109375 C 53.054688 -1.46875 53.148438 -0.917969 53.238281 -0.367188 C 53.515625 0.640625 54.066406 1.191406 54.890625 1.191406 Z M 54.890625 1.191406 "></path></g></g></g><g fill="#0d090a" fill-opacity="1"><g transform="translate(301.130459, 92.231879)"><g><path d="M 4.773438 1.007812 C 6.425781 1.007812 7.617188 0.824219 8.71875 0.457031 C 9.085938 0.367188 9.453125 0.273438 9.730469 0.0898438 C 10.554688 -0.0898438 11.289062 -0.367188 12.023438 -0.640625 C 13.585938 -1.375 15.144531 -2.109375 16.613281 -2.84375 L 16.980469 -3.027344 C 17.625 -3.394531 18.449219 -3.855469 19.277344 -4.40625 C 20.101562 -4.863281 20.929688 -5.507812 21.9375 -6.332031 C 22.765625 -6.976562 23.867188 -7.894531 24.875 -8.8125 C 25.609375 -9.453125 26.253906 -10.1875 26.988281 -10.832031 C 27.261719 -11.199219 27.628906 -11.566406 27.996094 -11.839844 C 28.089844 -12.023438 28.273438 -12.117188 28.363281 -12.207031 C 28.457031 -12.300781 28.640625 -12.390625 28.640625 -12.484375 C 29.097656 -12.941406 29.097656 -13.769531 28.640625 -14.226562 C 28.363281 -14.503906 27.996094 -14.6875 27.628906 -14.6875 C 27.445312 -14.6875 27.171875 -14.6875 26.894531 -14.503906 C 26.253906 -13.953125 25.609375 -13.402344 24.96875 -12.757812 C 24.875 -12.667969 24.785156 -12.574219 24.691406 -12.390625 C 24.324219 -12.117188 24.050781 -11.839844 23.773438 -11.472656 C 23.039062 -10.738281 22.304688 -9.914062 21.386719 -9.269531 C 20.5625 -8.8125 19.828125 -8.167969 19.09375 -7.617188 C 17.992188 -6.699219 16.980469 -5.964844 15.789062 -5.414062 C 15.605469 -5.324219 15.511719 -5.324219 15.328125 -5.230469 C 15.238281 -5.230469 15.054688 -5.140625 14.960938 -5.046875 C 12.757812 -3.855469 10.832031 -3.027344 8.996094 -2.386719 C 7.433594 -1.925781 6.058594 -1.652344 4.679688 -1.652344 C 3.761719 -1.652344 2.9375 -1.742188 2.109375 -1.925781 C 1.101562 -2.203125 0.457031 -2.84375 0.183594 -3.761719 C -0.183594 -4.773438 0 -5.691406 0.183594 -6.425781 C 0.183594 -6.699219 0.273438 -6.976562 0.273438 -7.25 C 0.367188 -7.894531 0.824219 -8.445312 1.375 -8.535156 C 1.742188 -8.535156 2.019531 -8.628906 2.292969 -8.71875 C 2.84375 -8.8125 3.394531 -8.902344 3.945312 -8.996094 L 4.222656 -9.085938 C 5.691406 -9.453125 7.25 -9.820312 8.71875 -10.371094 C 9.730469 -10.738281 10.832031 -11.199219 12.117188 -11.839844 C 13.035156 -12.390625 14.042969 -12.941406 15.054688 -13.585938 L 15.328125 -13.859375 C 16.523438 -14.6875 17.714844 -15.511719 18.726562 -16.429688 C 19.734375 -17.441406 20.5625 -18.359375 21.296875 -19.277344 C 22.304688 -20.746094 23.039062 -22.214844 23.40625 -23.867188 C 23.40625 -24.050781 23.40625 -24.324219 23.316406 -24.601562 C 23.316406 -24.691406 23.316406 -24.875 23.222656 -24.96875 C 23.222656 -25.152344 23.132812 -25.335938 23.132812 -25.609375 C 23.039062 -25.886719 22.949219 -26.160156 22.398438 -26.621094 C 21.664062 -27.261719 20.835938 -27.628906 19.917969 -27.628906 C 19.734375 -27.628906 19.644531 -27.628906 19.460938 -27.722656 C 19.09375 -27.722656 18.816406 -27.722656 18.542969 -27.722656 C 17.992188 -27.722656 17.625 -27.628906 17.257812 -27.539062 C 16.613281 -27.171875 15.878906 -26.894531 15.238281 -26.621094 C 14.320312 -26.253906 13.492188 -25.886719 12.574219 -25.425781 C 11.015625 -24.601562 9.636719 -23.683594 8.628906 -22.765625 C 8.167969 -22.304688 7.710938 -21.9375 7.25 -21.570312 C 6.792969 -21.203125 6.425781 -20.929688 6.058594 -20.5625 C 5.964844 -20.46875 5.875 -20.378906 5.691406 -20.285156 C 4.957031 -19.550781 4.222656 -18.910156 3.578125 -18.265625 C 2.386719 -16.980469 1.285156 -15.605469 0.273438 -14.042969 C -0.367188 -13.035156 -1.101562 -11.933594 -1.46875 -10.832031 C -2.386719 -8.351562 -2.84375 -6.148438 -2.660156 -4.039062 C -2.476562 -2.753906 -1.925781 -1.558594 -1.007812 -0.550781 C -0.734375 -0.367188 -0.183594 0.273438 0.367188 0.457031 C 1.285156 0.734375 2.292969 0.917969 3.304688 0.917969 C 3.855469 1.007812 4.3125 1.007812 4.773438 1.007812 Z M 19.183594 -25.058594 C 19.550781 -25.058594 20.011719 -24.875 20.195312 -24.601562 C 20.5625 -24.234375 20.652344 -23.683594 20.46875 -23.222656 C 19.917969 -21.9375 19.277344 -20.835938 18.175781 -19.734375 C 16.246094 -17.53125 13.675781 -15.695312 10.1875 -13.859375 C 9.453125 -13.492188 8.71875 -13.21875 7.984375 -12.941406 C 7.710938 -12.851562 7.433594 -12.757812 7.25 -12.667969 C 6.792969 -12.574219 6.332031 -12.390625 5.875 -12.300781 C 5.78125 -12.207031 5.597656 -12.117188 5.414062 -12.117188 C 5.230469 -12.023438 5.140625 -12.023438 4.957031 -12.023438 C 4.496094 -12.023438 4.128906 -12.207031 3.855469 -12.574219 C 3.488281 -13.035156 3.488281 -13.675781 3.761719 -14.136719 C 4.773438 -15.789062 6.058594 -17.164062 7.617188 -18.359375 C 8.261719 -18.910156 8.996094 -19.460938 9.820312 -20.285156 C 11.472656 -21.847656 13.492188 -23.039062 16.0625 -24.140625 C 16.246094 -24.234375 16.429688 -24.324219 16.613281 -24.417969 C 16.980469 -24.507812 17.347656 -24.691406 17.714844 -24.875 C 17.992188 -24.96875 18.359375 -24.96875 18.632812 -25.058594 C 18.726562 -25.058594 18.816406 -25.058594 18.910156 -25.058594 C 19 -25.058594 19.09375 -25.058594 19.183594 -25.058594 Z M 19.183594 -25.058594 "></path></g></g></g><g fill="#0d090a" fill-opacity="1"><g transform="translate(326.924042, 92.231879)"><g><path d="M -15.054688 18.910156 C -14.59375 18.910156 -14.136719 18.632812 -13.953125 18.175781 C -13.21875 16.980469 -12.574219 15.695312 -11.933594 14.410156 L -11.382812 13.585938 C -11.289062 13.308594 -11.199219 13.125 -11.105469 12.941406 C -10.921875 12.484375 -10.648438 12.023438 -10.371094 11.566406 C -10.097656 11.105469 -9.730469 10.554688 -9.453125 10.097656 C -9.085938 9.546875 -8.71875 8.996094 -8.351562 8.445312 C -8.261719 8.261719 -8.078125 8.078125 -7.984375 7.800781 C -7.34375 6.792969 -6.699219 5.78125 -6.242188 4.679688 C -5.78125 3.671875 -5.140625 2.570312 -4.496094 1.46875 C -4.3125 1.285156 -4.128906 1.007812 -3.945312 0.640625 C -3.855469 0.457031 -3.671875 0.183594 -3.578125 0 C -3.304688 -0.367188 -3.121094 -0.734375 -2.84375 -1.101562 C -2.109375 -2.386719 -1.375 -3.671875 -0.550781 -4.863281 C -0.183594 -5.414062 0.183594 -5.78125 0.457031 -6.242188 C 0.734375 -6.515625 0.917969 -6.699219 1.101562 -6.976562 C 1.375 -7.34375 1.652344 -7.800781 2.019531 -8.167969 C 2.570312 -8.996094 3.121094 -9.820312 3.761719 -10.554688 C 5.140625 -12.207031 6.609375 -13.769531 7.984375 -15.238281 C 8.167969 -15.421875 8.351562 -15.605469 8.535156 -15.789062 C 9.453125 -16.796875 10.464844 -17.898438 11.75 -18.632812 C 12.207031 -18.910156 12.667969 -19.277344 13.125 -19.550781 C 13.308594 -19.734375 13.585938 -19.828125 13.769531 -20.011719 C 15.605469 -21.296875 17.441406 -22.121094 19.460938 -22.582031 C 19.734375 -22.582031 19.917969 -22.671875 20.195312 -22.671875 C 21.019531 -22.671875 22.03125 -22.121094 22.304688 -20.746094 C 22.398438 -20.101562 22.398438 -19.550781 22.398438 -18.910156 C 22.304688 -17.53125 22.03125 -16.246094 21.570312 -15.054688 C 21.386719 -14.777344 21.296875 -14.410156 21.113281 -13.953125 C 20.835938 -13.21875 20.5625 -12.390625 20.101562 -11.65625 C 19.367188 -10.371094 18.449219 -8.996094 17.441406 -7.710938 C 16.796875 -6.976562 16.0625 -6.332031 14.960938 -5.597656 C 13.769531 -4.863281 12.574219 -4.3125 11.382812 -3.945312 C 11.015625 -3.945312 10.738281 -3.855469 10.371094 -3.761719 C 8.628906 -3.304688 6.699219 -2.753906 4.679688 -2.753906 C 4.589844 -2.753906 4.496094 -2.753906 4.3125 -2.753906 C 3.671875 -2.753906 3.121094 -2.203125 3.121094 -1.558594 C 3.027344 -0.824219 3.578125 -0.183594 4.222656 -0.0898438 C 4.496094 -0.0898438 4.773438 -0.0898438 4.957031 -0.0898438 C 5.414062 -0.0898438 5.875 -0.0898438 6.332031 -0.183594 C 7.34375 -0.367188 8.628906 -0.457031 9.820312 -0.824219 L 10.1875 -0.917969 C 11.933594 -1.285156 13.492188 -1.742188 14.960938 -2.570312 C 15.511719 -2.84375 16.0625 -3.121094 16.796875 -3.488281 C 19 -4.496094 21.203125 -5.691406 23.5 -7.160156 C 25.519531 -8.445312 27.996094 -10.28125 29.558594 -13.035156 C 30.015625 -13.859375 29.925781 -14.320312 29.648438 -14.6875 C 29.375 -15.144531 29.097656 -15.328125 28.546875 -15.328125 C 28.457031 -15.328125 28.363281 -15.328125 28.273438 -15.328125 C 27.90625 -15.238281 27.539062 -15.054688 26.988281 -14.410156 C 26.710938 -14.042969 26.34375 -13.859375 25.976562 -13.859375 C 25.792969 -13.859375 25.519531 -13.953125 25.335938 -14.042969 C 24.785156 -14.226562 24.507812 -14.871094 24.601562 -15.511719 C 24.601562 -15.789062 24.691406 -16.0625 24.691406 -16.339844 C 24.875 -16.890625 24.96875 -17.441406 24.96875 -17.992188 C 25.058594 -19.644531 25.152344 -21.113281 24.507812 -22.488281 C 23.957031 -23.773438 23.039062 -24.691406 21.753906 -25.058594 C 21.296875 -25.242188 20.746094 -25.335938 20.285156 -25.335938 C 20.101562 -25.335938 19.917969 -25.335938 19.734375 -25.335938 C 18.542969 -25.152344 17.257812 -24.875 16.0625 -24.324219 C 15.695312 -24.050781 15.238281 -23.867188 14.871094 -23.683594 C 14.226562 -23.40625 13.585938 -23.132812 13.035156 -22.765625 C 12.390625 -22.398438 11.839844 -22.03125 11.199219 -21.570312 C 10.832031 -21.296875 10.554688 -21.113281 10.1875 -20.835938 C 10.003906 -20.746094 9.820312 -20.652344 9.636719 -20.5625 C 9.546875 -20.46875 9.453125 -20.378906 9.363281 -20.378906 C 9.085938 -20.195312 8.902344 -20.195312 8.628906 -20.195312 C 8.351562 -20.195312 7.984375 -20.285156 7.800781 -20.46875 C 7.34375 -20.929688 7.160156 -21.480469 7.34375 -22.03125 C 7.433594 -22.214844 7.527344 -22.304688 7.527344 -22.488281 C 7.617188 -22.671875 7.710938 -22.949219 7.800781 -23.132812 C 7.894531 -23.40625 7.984375 -23.683594 8.167969 -23.957031 C 8.351562 -24.417969 8.535156 -24.785156 8.71875 -25.242188 C 8.902344 -25.609375 8.902344 -26.070312 8.71875 -26.4375 C 8.628906 -26.621094 8.351562 -26.894531 7.984375 -27.078125 C 7.800781 -27.171875 7.617188 -27.171875 7.433594 -27.171875 C 6.882812 -27.171875 6.425781 -26.804688 6.148438 -26.160156 C 6.058594 -25.703125 5.875 -25.242188 5.691406 -24.875 C 5.597656 -24.601562 5.507812 -24.324219 5.324219 -24.050781 C 4.957031 -23.039062 4.496094 -21.9375 3.945312 -20.835938 C 3.394531 -19.644531 2.753906 -18.359375 2.203125 -17.074219 L 2.019531 -16.707031 C 1.742188 -16.0625 1.375 -15.511719 1.101562 -14.871094 C 0.824219 -14.320312 0.550781 -13.769531 0.273438 -13.308594 C 0.0898438 -12.851562 -0.0898438 -12.390625 -0.367188 -11.933594 C -0.640625 -11.289062 -1.007812 -10.648438 -1.285156 -9.914062 C -1.652344 -9.179688 -2.109375 -8.535156 -2.476562 -7.800781 C -2.660156 -7.433594 -2.84375 -7.066406 -3.027344 -6.699219 C -3.394531 -6.058594 -3.761719 -5.324219 -4.128906 -4.679688 C -4.957031 -3.210938 -5.78125 -1.742188 -6.515625 -0.273438 C -6.792969 0.183594 -7.066406 0.550781 -7.25 0.917969 C -7.617188 1.375 -7.894531 1.835938 -8.078125 2.292969 C -8.628906 3.761719 -9.453125 5.046875 -10.1875 6.242188 C -10.554688 6.792969 -10.832031 7.34375 -11.199219 7.984375 C -11.472656 8.535156 -11.839844 9.085938 -12.207031 9.546875 C -12.667969 10.1875 -13.035156 10.738281 -13.308594 11.382812 C -13.492188 11.933594 -13.859375 12.390625 -14.136719 12.851562 C -14.226562 13.035156 -14.410156 13.21875 -14.503906 13.308594 C -14.59375 13.585938 -14.777344 13.859375 -14.871094 14.136719 C -15.054688 14.410156 -15.238281 14.777344 -15.328125 15.054688 C -15.421875 15.238281 -15.511719 15.421875 -15.695312 15.695312 C -15.789062 15.878906 -15.878906 16.0625 -15.972656 16.246094 C -16.0625 16.523438 -16.246094 16.796875 -16.339844 17.074219 C -16.613281 17.714844 -16.339844 18.449219 -15.695312 18.816406 C -15.511719 18.910156 -15.328125 18.910156 -15.054688 18.910156 Z M -15.054688 18.910156 "></path></g></g></g><g fill="#0d090a" fill-opacity="1"><g transform="translate(356.113925, 92.231879)"><g><path d="M 0.0898438 0.457031 C 0.457031 0.457031 0.640625 0.457031 0.824219 0.457031 C 1.925781 0.0898438 3.027344 -0.367188 4.039062 -1.007812 C 4.863281 -1.558594 5.78125 -2.203125 6.609375 -2.84375 C 7.066406 -3.121094 7.527344 -3.488281 7.894531 -3.761719 C 8.078125 -3.945312 8.351562 -4.039062 8.535156 -4.128906 C 8.535156 -4.222656 8.628906 -4.222656 8.71875 -4.222656 C 8.902344 -4.40625 9.179688 -4.496094 9.453125 -4.496094 C 9.636719 -4.496094 9.820312 -4.40625 10.003906 -4.3125 C 10.371094 -4.128906 10.738281 -3.761719 10.738281 -3.304688 C 11.015625 -2.109375 11.566406 -1.191406 12.851562 -0.273438 C 13.585938 0.183594 14.410156 0.457031 15.328125 0.457031 C 15.878906 0.457031 16.523438 0.367188 17.164062 0.183594 C 17.992188 -0.0898438 18.910156 -0.457031 19.917969 -1.101562 C 21.296875 -2.019531 22.765625 -3.121094 24.050781 -4.128906 L 24.234375 -4.222656 C 25.703125 -5.414062 27.261719 -6.792969 29.007812 -8.71875 C 29.648438 -9.363281 30.199219 -10.003906 30.660156 -10.554688 C 31.027344 -10.921875 31.300781 -11.289062 31.667969 -11.566406 C 32.496094 -12.574219 33.414062 -13.585938 34.238281 -14.59375 C 34.515625 -14.871094 34.605469 -15.238281 34.605469 -15.511719 C 34.515625 -15.878906 34.332031 -16.246094 34.054688 -16.429688 C 33.871094 -16.707031 33.503906 -16.796875 33.230469 -16.796875 C 32.863281 -16.796875 32.402344 -16.613281 32.128906 -16.246094 C 30.660156 -14.503906 29.097656 -12.757812 27.445312 -10.921875 C 26.894531 -10.28125 26.253906 -9.730469 25.703125 -9.179688 C 25.058594 -8.628906 24.417969 -7.984375 23.683594 -7.34375 C 23.316406 -6.976562 22.855469 -6.609375 22.398438 -6.242188 C 20.652344 -4.679688 18.910156 -3.488281 16.980469 -2.570312 C 16.523438 -2.386719 16.15625 -2.292969 15.695312 -2.292969 C 15.605469 -2.203125 15.511719 -2.203125 15.421875 -2.203125 C 14.59375 -2.203125 14.042969 -2.570312 13.859375 -2.9375 C 13.585938 -3.210938 13.308594 -3.761719 13.402344 -4.679688 C 13.585938 -5.507812 13.953125 -6.332031 14.320312 -6.976562 C 14.871094 -7.894531 15.511719 -8.8125 16.339844 -9.914062 C 16.796875 -10.464844 17.347656 -11.105469 17.808594 -11.65625 C 18.265625 -12.207031 18.816406 -12.757812 19.277344 -13.308594 C 19.644531 -13.769531 19.917969 -14.226562 20.011719 -14.6875 C 20.195312 -15.144531 20.011719 -15.789062 19.550781 -16.0625 C 19.367188 -16.246094 19 -16.339844 18.726562 -16.339844 C 18.542969 -16.339844 18.265625 -16.339844 18.082031 -16.15625 C 17.53125 -15.789062 17.074219 -15.511719 16.707031 -15.144531 C 15.421875 -14.042969 14.042969 -12.757812 12.757812 -11.65625 L 11.839844 -10.832031 C 11.289062 -10.28125 10.738281 -9.820312 10.1875 -9.269531 C 8.902344 -8.167969 7.617188 -6.976562 6.242188 -5.875 C 4.957031 -4.773438 3.578125 -3.855469 2.292969 -3.027344 C 1.558594 -2.660156 0.734375 -2.203125 -0.367188 -2.203125 C -0.367188 -2.203125 -0.457031 -2.203125 -0.457031 -2.203125 C -0.824219 -2.203125 -1.285156 -2.386719 -1.46875 -2.753906 C -1.742188 -3.027344 -1.835938 -3.488281 -1.742188 -3.855469 C -1.742188 -4.039062 -1.652344 -4.3125 -1.652344 -4.496094 C -1.558594 -4.957031 -1.46875 -5.414062 -1.375 -5.875 C -1.101562 -6.609375 -0.824219 -7.34375 -0.550781 -7.894531 C 0.550781 -10.28125 2.109375 -12.207031 3.855469 -14.320312 C 4.3125 -14.871094 4.773438 -15.328125 5.324219 -15.695312 C 5.597656 -15.972656 5.875 -16.15625 6.058594 -16.429688 C 8.167969 -18.542969 10.097656 -20.011719 12.117188 -21.203125 C 13.859375 -22.214844 15.511719 -22.949219 17.164062 -23.316406 C 18.082031 -23.589844 19 -23.867188 20.011719 -23.867188 C 20.285156 -23.867188 20.5625 -23.773438 20.929688 -23.773438 C 21.203125 -23.683594 21.9375 -23.589844 22.398438 -22.855469 C 22.671875 -22.398438 22.765625 -21.847656 22.582031 -21.203125 C 22.488281 -20.835938 22.304688 -20.5625 22.121094 -20.285156 C 22.121094 -20.195312 22.03125 -20.101562 22.03125 -20.011719 C 21.753906 -19.367188 21.847656 -18.726562 22.398438 -18.359375 C 22.671875 -18.175781 22.949219 -17.992188 23.222656 -17.992188 C 23.40625 -17.992188 23.773438 -18.082031 24.050781 -18.359375 C 24.601562 -18.910156 25.058594 -19.734375 25.242188 -20.5625 C 25.335938 -21.386719 25.335938 -22.214844 25.242188 -23.132812 C 25.058594 -24.050781 24.507812 -24.875 23.683594 -25.519531 C 22.671875 -26.160156 21.570312 -26.527344 20.195312 -26.527344 C 19.828125 -26.527344 19.277344 -26.527344 18.816406 -26.4375 C 15.878906 -25.976562 13.125 -24.96875 10.738281 -23.5 C 9.085938 -22.488281 7.433594 -21.296875 5.597656 -19.644531 C 4.773438 -18.910156 3.945312 -18.175781 3.121094 -17.441406 C 2.753906 -17.074219 2.292969 -16.613281 1.925781 -16.246094 C 1.007812 -15.054688 0.183594 -14.042969 -0.550781 -13.125 L -0.640625 -12.851562 C -1.285156 -12.117188 -1.835938 -11.289062 -2.203125 -10.554688 C -3.578125 -8.078125 -4.222656 -6.058594 -4.40625 -4.039062 C -4.496094 -3.121094 -4.40625 -2.386719 -4.128906 -1.742188 C -3.945312 -1.285156 -3.488281 -0.824219 -3.027344 -0.273438 C -2.9375 -0.183594 -2.84375 -0.0898438 -2.753906 0 C -2.660156 0.0898438 -2.570312 0.0898438 -2.476562 0.0898438 L -2.292969 0.183594 C -2.019531 0.273438 -1.652344 0.367188 -1.46875 0.367188 C -1.191406 0.367188 -1.007812 0.457031 -0.824219 0.457031 C -0.457031 0.457031 -0.183594 0.457031 0.0898438 0.457031 Z M 0.0898438 0.457031 "></path></g></g></g><g fill="#0d090a" fill-opacity="1"><g transform="translate(385.762784, 92.231879)"><g><path d="M 1.925781 0.183594 C 2.570312 0.183594 3.304688 0 3.945312 -0.273438 C 5.691406 -0.917969 7.066406 -1.652344 8.445312 -2.660156 C 10.648438 -4.222656 12.667969 -6.058594 14.59375 -7.984375 L 15.144531 -8.445312 C 16.15625 -9.363281 17.164062 -10.464844 18.082031 -11.566406 C 18.542969 -12.023438 19 -12.484375 19.460938 -13.035156 C 20.011719 -13.585938 20.011719 -14.320312 19.550781 -14.871094 C 19.277344 -15.144531 19 -15.328125 18.542969 -15.328125 C 18.265625 -15.328125 17.992188 -15.238281 17.714844 -14.960938 C 17.625 -14.960938 17.53125 -14.871094 17.441406 -14.777344 C 17.164062 -14.59375 16.980469 -14.503906 16.890625 -14.320312 C 16.707031 -14.226562 16.523438 -14.042969 16.429688 -13.953125 C 15.972656 -13.585938 15.605469 -13.21875 15.421875 -12.941406 C 14.777344 -11.839844 13.953125 -11.015625 13.125 -10.28125 C 13.035156 -10.097656 12.941406 -10.003906 12.757812 -9.914062 C 12.023438 -9.085938 11.105469 -8.261719 9.914062 -7.25 C 8.71875 -6.242188 7.433594 -5.140625 5.964844 -4.222656 C 5.230469 -3.671875 3.945312 -2.9375 2.292969 -2.570312 C 2.203125 -2.570312 2.109375 -2.570312 2.019531 -2.570312 C 1.652344 -2.570312 1.375 -2.660156 1.101562 -2.9375 C 0.734375 -3.210938 0.640625 -3.578125 0.640625 -4.039062 C 0.640625 -4.128906 0.640625 -4.3125 0.640625 -4.40625 C 0.640625 -4.679688 0.640625 -4.863281 0.734375 -5.140625 C 0.734375 -5.414062 0.824219 -5.691406 0.824219 -5.875 C 0.917969 -6.148438 1.007812 -6.515625 1.007812 -6.699219 C 1.191406 -8.445312 1.835938 -10.003906 2.386719 -11.472656 C 2.476562 -11.75 2.660156 -12.023438 2.753906 -12.300781 C 3.210938 -13.402344 4.039062 -13.953125 4.679688 -14.226562 L 4.863281 -14.320312 C 5.875 -14.871094 6.792969 -15.328125 7.617188 -15.878906 C 9.085938 -16.890625 10.464844 -17.898438 11.75 -19 C 13.125 -20.101562 14.410156 -21.386719 15.695312 -22.582031 C 16.339844 -23.222656 16.980469 -23.867188 17.625 -24.507812 C 17.898438 -24.875 18.265625 -25.242188 18.542969 -25.519531 C 18.726562 -25.792969 19 -25.976562 19.183594 -26.160156 C 19.460938 -26.4375 19.734375 -26.710938 20.011719 -27.078125 L 20.46875 -27.539062 C 22.03125 -29.464844 23.589844 -31.300781 25.058594 -33.230469 C 25.152344 -33.414062 25.335938 -33.597656 25.519531 -33.78125 C 26.804688 -35.523438 28.089844 -37.175781 29.007812 -39.011719 C 30.84375 -42.5 31.851562 -45.253906 32.402344 -47.914062 C 32.585938 -48.742188 32.585938 -49.476562 32.402344 -50.484375 C 32.21875 -51.21875 31.761719 -51.863281 31.117188 -52.414062 C 31.027344 -52.503906 30.566406 -52.6875 29.742188 -52.6875 C 29.097656 -52.6875 28.546875 -52.503906 28.457031 -52.414062 C 26.710938 -51.035156 25.335938 -49.660156 24.140625 -48.28125 C 23.589844 -47.730469 23.132812 -47.179688 22.671875 -46.628906 L 22.398438 -46.171875 C 22.121094 -45.894531 21.847656 -45.621094 21.664062 -45.253906 C 20.929688 -44.519531 20.378906 -43.785156 19.734375 -42.957031 C 19.277344 -42.316406 18.726562 -41.488281 18.265625 -40.847656 C 17.898438 -40.203125 17.53125 -39.652344 17.074219 -39.101562 C 16.613281 -38.371094 16.0625 -37.726562 15.605469 -36.992188 C 15.238281 -36.535156 14.871094 -36.074219 14.503906 -35.523438 C 13.308594 -33.964844 12.117188 -32.3125 10.921875 -30.660156 C 10.28125 -29.832031 9.730469 -29.007812 9.085938 -28.179688 C 8.902344 -27.8125 8.628906 -27.539062 8.351562 -27.171875 C 7.894531 -26.527344 7.34375 -25.792969 6.882812 -25.152344 C 6.515625 -24.601562 6.148438 -23.957031 5.78125 -23.316406 C 5.507812 -22.949219 5.230469 -22.488281 4.957031 -22.121094 C 4.773438 -21.9375 4.679688 -21.664062 4.496094 -21.570312 C 4.40625 -21.386719 4.222656 -21.203125 4.128906 -21.019531 C 2.84375 -18.449219 1.558594 -15.878906 0.550781 -13.953125 C -0.367188 -12.117188 -1.007812 -10.371094 -1.375 -8.628906 C -1.742188 -6.976562 -2.019531 -5.230469 -2.019531 -3.488281 C -2.019531 -1.652344 -1.191406 -0.550781 0.550781 0 C 1.007812 0.0898438 1.46875 0.183594 1.925781 0.183594 Z M 27.445312 -47.363281 C 27.628906 -47.363281 27.722656 -47.363281 27.90625 -47.273438 C 28.363281 -47.179688 28.730469 -46.722656 28.824219 -46.261719 C 29.007812 -45.070312 28.640625 -44.335938 28.363281 -43.785156 C 28.363281 -43.691406 28.273438 -43.601562 28.273438 -43.507812 C 27.078125 -40.847656 25.976562 -38.828125 24.601562 -36.992188 L 24.050781 -36.351562 C 22.03125 -33.6875 20.011719 -31.027344 17.714844 -28.546875 C 16.613281 -27.261719 15.421875 -25.976562 14.226562 -24.875 C 13.769531 -24.417969 13.308594 -23.957031 12.851562 -23.5 C 12.484375 -23.039062 11.933594 -22.855469 11.289062 -22.855469 C 10.738281 -22.855469 10.28125 -23.132812 10.003906 -23.589844 C 9.820312 -24.050781 9.820312 -24.601562 10.1875 -24.96875 C 10.371094 -25.335938 10.554688 -25.609375 10.738281 -25.886719 C 11.289062 -26.527344 11.75 -27.171875 12.207031 -27.90625 C 12.574219 -28.273438 12.941406 -28.730469 13.21875 -29.191406 C 13.675781 -29.742188 14.136719 -30.382812 14.503906 -30.933594 C 15.878906 -32.863281 17.164062 -34.515625 18.265625 -36.074219 C 18.910156 -36.992188 19.460938 -37.910156 20.101562 -38.828125 C 20.5625 -39.46875 21.019531 -40.113281 21.480469 -40.847656 L 21.570312 -40.847656 C 22.488281 -42.222656 23.40625 -43.507812 24.691406 -44.703125 C 24.875 -44.976562 25.058594 -45.253906 25.242188 -45.527344 C 25.425781 -45.710938 25.519531 -45.894531 25.703125 -46.078125 C 25.886719 -46.355469 26.070312 -46.445312 26.253906 -46.628906 C 26.253906 -46.722656 26.34375 -46.8125 26.4375 -46.90625 C 26.710938 -47.179688 27.078125 -47.363281 27.445312 -47.363281 Z M 27.445312 -47.363281 "></path></g></g></g><g clip-path="url(#746cf66f6a)"><g clip-path="url(#d37e93cee8)"><path fill="#00a9a5" d="M 46.355469 105.300781 L 306.359375 105.300781 L 306.359375 110.027344 L 46.355469 110.027344 Z M 46.355469 105.300781 " fill-opacity="1" fill-rule="nonzero"></path></g></g><g clip-path="url(#7c227ef4e1)"><g clip-path="url(#3e4fa9987e)"><path fill="#00a9a5" d="M 324.785156 105.300781 L 399.242188 105.300781 L 399.242188 110.027344 L 324.785156 110.027344 Z M 324.785156 105.300781 " fill-opacity="1" fill-rule="nonzero"></path></g></g><g clip-path="url(#b1ae3d7eca)"><g clip-path="url(#f43304cdd1)"><path fill="#ee1122" d="M 401.605469 105.300781 L 406.4375 105.300781 L 406.4375 110.128906 L 401.605469 110.128906 Z M 401.605469 105.300781 " fill-opacity="1" fill-rule="nonzero"></path></g></g></svg>